[youtube] Extracting URL: https://www.youtube.com/watch?v=f0g0jzm0mYA
[youtube] f0g0jzm0mYA: Downloading webpage
[youtube] f0g0jzm0mYA: Downloading tv client config
[youtube] f0g0jzm0mYA: Downloading tv player API JSON
[youtube] f0g0jzm0mYA: Downloading ios player API JSON
[youtube] f0g0jzm0mYA: Downloading player 50cc0679-player_es6_vflset_en_US_base
WARNING: [youtube] Falling back to generic n function search
player = https://www.youtube.com/s/player/50cc0679/player_es6.vflset/en_US/base.js
WARNING: [youtube] f0g0jzm0mYA: nsig extraction failed: Some formats may be missing
n = BdeTAla9d2S1o1Eunh ; player = https://www.youtube.com/s/player/50cc0679/player_es6.vflset/en_US/base.js
Please report this issue on  https://github.com/yt-dlp/yt-dlp/issues?q= , filling out the appropriate issue template. Confirm you are on the latest version using  yt-dlp -U
WARNING: [youtube] f0g0jzm0mYA: Some web client https formats have been skipped as they are missing a url. YouTube is forcing SABR streaming for this client. See  https://github.com/yt-dlp/yt-dlp/issues/12482  for more details
[youtube] f0g0jzm0mYA: Downloading m3u8 information
[info] f0g0jzm0mYA: Downloading 1 format(s): 616+234
[info] f0g0jzm0mYA: Downloading 1 time ranges: 0.0-173.0
[download] Destination: C:\Users\Kiera\Downloads\download test\Lemon Demon - Modify FAN ANIMATION.mp4
[hls @ 000002224fd7a440] Skip ('#EXT-X-VERSION:6')
[hls @ 000002224fd7a440] Opening 'https://rr5---sn-vgqsknzy.googlevideo.com/videoplayback/id/7f48348f39b49980/itag/616/source/youtube/expire/1766218517/ei/tQZGacf7MNOplu8P2o-CwAw/ip/217.180.221.118/requiressl/yes/ratebypass/yes/pfa/1/wft/1/sgovp/clen%3D59056646%3Bdur%3D172.389%3Bgir%3Dyes%3Bitag%3D356%3Blmt%3D1731552233300740/rqh/1/hls_chunk_host/rr5---sn-vgqsknzy.googlevideo.com/xpc/EgVo2aDSNQ%3D%3D/cps/248/met/1766196917,/mh/ye/mm/31,26/mn/sn-vgqsknzy,sn-aj5ua5-5c/ms/au,onr/mv/m/mvi/5/pl/24/rms/au,au/initcwndbps/1211250/bui/AYUSA3Btm7p0JZASuyna09CafjWWJHNtSZRZkUOktxNiYAPXyRgpFgC_zwKNVorCl-APL44YhywXWYyq/spc/wH4Qq53qyehFjD7tA396rwOac0N7SgHgCrrL7yW0fmJfE0PQEnlcpACn3o3AEIUf/vprv/1/playlist_type/DVR/txp/4532434/mt/1766196543/fvip/2/keepalive/yes/fexp/51552689,51565115,51565681,51580968/sparams/expire,ei,ip,id,itag,source,requiressl,ratebypass,pfa,wft,sgovp,rqh,xpc,bui,spc,vprv,playlist_type/sig/AJfQdSswRgIhAJ4mnqRZGnhs5-X8C74EDLxtGi2RjENPaHpC3rGYYKTwAiEAq72ojxBM8x5bn83e5sPXl0J8JcS325ed9rfAmwnXbzc%3D/lsparams/hls_chunk_host,cps,met,mh,mm,mn,ms,mv,mvi,pl,rms,initcwndbps/lsig/APaTxxMwRgIhAJg50DgRpZzjuliKlUhoWk6LUA4b52K96FgPTgWwwPTtAiEAr5IZ07_lw6qJggSv5lvdPTdtR6K0A3cPe6LOBdhGHgw%3D/playlist/index.m3u8/govp/slices%3D0-596265/gosq/0?is=1&file=seg.ts' for reading
Last message repeated 2 times
Input #0, hls, from 'https://manifest.googlevideo.com/api/manifest/hls_playlist/expire/1766218517/ei/tQZGacf7MNOplu8P2o-CwAw/ip/217.180.221.118/id/7f48348f39b49980/itag/616/source/youtube/requiressl/yes/ratebypass/yes/pfa/1/wft/1/sgovp/clen%3D59056646%3Bdur%3D172.389%3Bgir%3Dyes%3Bitag%3D356%3Blmt%3D1731552233300740/rqh/1/hls_chunk_host/rr5---sn-vgqsknzy.googlevideo.com/xpc/EgVo2aDSNQ%3D%3D/cps/248/met/1766196917,/mh/ye/mm/31,26/mn/sn-vgqsknzy,sn-aj5ua5-5c/ms/au,onr/mv/m/mvi/5/pl/24/rms/au,au/initcwndbps/1211250/bui/AYUSA3Btm7p0JZASuyna09CafjWWJHNtSZRZkUOktxNiYAPXyRgpFgC_zwKNVorCl-APL44YhywXWYyq/spc/wH4Qq53qyehFjD7tA396rwOac0N7SgHgCrrL7yW0fmJfE0PQEnlcpACn3o3AEIUf/vprv/1/playlist_type/DVR/dover/13/txp/4532434/mt/1766196543/fvip/2/short_key/1/keepalive/yes/fexp/51552689,51565115,51565681,51580968/sparams/expire,ei,ip,id,itag,source,requiressl,ratebypass,pfa,wft,sgovp,rqh,xpc,bui,spc,vprv,playlist_type/sig/AJfQdSswRgIhAJ4mnqRZGnhs5-X8C74EDLxtGi2RjENPaHpC3rGYYKTwAiEAq72ojxBM8x5bn83e5sPXl0J8JcS325ed9rfAmwnXbzc%3D/lsparams/hls_chunk_host,cps,met,mh,mm,mn,ms,mv,mvi,pl,rms,initcwndbps/lsig/APaTxxMwRgIhAJg50DgRpZzjuliKlUhoWk6LUA4b52K96FgPTgWwwPTtAiEAr5IZ07_lw6qJggSv5lvdPTdtR6K0A3cPe6LOBdhGHgw%3D/playlist/index.m3u8':
Duration: 00:02:52.39, start: 0.000000, bitrate: 2 kb/s
Program 0
Metadata:
variant_bitrate : 0
Stream #0:0(und): Video: vp9 (Profile 0) (vp09 / 0x39307076), yuv420p(tv, smpte170m/bt470bg/bt709), 1920x1080, 1530 kb/s, 18 fps, 18 tbr, 1k tbn (default)
Metadata:
variant_bitrate : 0
compatible_brands: iso6mp41
handler_name    : ISO Media file produced by Google Inc. Created on: 12/19/2025.
vendor_id       : [0][0][0][0]
major_brand     : dash
minor_version   : 0
creation_time   : 2025-12-20T02:15:18.000000Z
[hls @ 000002225054e5c0] Skip ('#EXT-X-VERSION:3')
[hls @ 000002225054e5c0] Opening 'https://rr5---sn-vgqsknzy.googlevideo.com/videoplayback/id/7f48348f39b49980/itag/234/source/youtube/expire/1766218517/ei/tQZGacf7MNOplu8P2o-CwAw/ip/217.180.221.118/requiressl/yes/ratebypass/yes/pfa/1/goi/133/sgoap/clen%3D2792933%3Bdur%3D172.501%3Bgir%3Dyes%3Bitag%3D140%3Blmt%3D1739113800760800/rqh/1/hls_chunk_host/rr5---sn-vgqsknzy.googlevideo.com/xpc/EgVo2aDSNQ%3D%3D/cps/248/met/1766196917,/mh/ye/mm/31,26/mn/sn-vgqsknzy,sn-aj5ua5-5c/ms/au,onr/mv/m/mvi/5/pl/24/rms/au,au/initcwndbps/1211250/bui/AYUSA3Btm7p0JZASuyna09CafjWWJHNtSZRZkUOktxNiYAPXyRgpFgC_zwKNVorCl-APL44YhywXWYyq/spc/wH4Qq53qyehFjD7tA396rwOac0N7SgHgCrrL7yW0fmJfE0PQEnlcpACn3o3AEIUf/vprv/1/playlist_type/DVR/txp/4532534/mt/1766196543/fvip/2/keepalive/yes/fexp/51552689,51565115,51565681,51580968/sparams/expire,ei,ip,id,itag,source,requiressl,ratebypass,pfa,goi,sgoap,rqh,xpc,bui,spc,vprv,playlist_type/sig/AJfQdSswRAIgdaVXPmzPfNkTyiZ8BP1GiY9w3uKMWlhl-hdtH4CH-d0CICueYL0Ko7T-b60MQsdhaW0if4u4c9TjK4JRZ2Ldedg8/lsparams/hls_chunk_host,cps,met,mh,mm,mn,ms,mv,mvi,pl,rms,initcwndbps/lsig/APaTxxMwRAIgNJa3nRp6m6D4uR9tBDBDE0VI6wsLfa1BCGCKpC5Vi5cCICCQ9Uw4vjxTR4By27Rk80L20_NVoHd4tIocoXY68XLD/playlist/index.m3u8/begin/0/len/3111/goap/slices%3D0-163124/gosq/0/file/seg.ts' for reading
Last message repeated 1 times
Input #1, hls, from 'https://manifest.googlevideo.com/api/manifest/hls_playlist/expire/1766218517/ei/tQZGacf7MNOplu8P2o-CwAw/ip/217.180.221.118/id/7f48348f39b49980/itag/234/source/youtube/requiressl/yes/ratebypass/yes/pfa/1/goi/133/sgoap/clen%3D2792933%3Bdur%3D172.501%3Bgir%3Dyes%3Bitag%3D140%3Blmt%3D1739113800760800/rqh/1/hls_chunk_host/rr5---sn-vgqsknzy.googlevideo.com/xpc/EgVo2aDSNQ%3D%3D/cps/248/met/1766196917,/mh/ye/mm/31,26/mn/sn-vgqsknzy,sn-aj5ua5-5c/ms/au,onr/mv/m/mvi/5/pl/24/rms/au,au/initcwndbps/1211250/bui/AYUSA3Btm7p0JZASuyna09CafjWWJHNtSZRZkUOktxNiYAPXyRgpFgC_zwKNVorCl-APL44YhywXWYyq/spc/wH4Qq53qyehFjD7tA396rwOac0N7SgHgCrrL7yW0fmJfE0PQEnlcpACn3o3AEIUf/vprv/1/playlist_type/DVR/dover/13/txp/4532534/mt/1766196543/fvip/2/short_key/1/keepalive/yes/fexp/51552689,51565115,51565681,51580968/sparams/expire,ei,ip,id,itag,source,requiressl,ratebypass,pfa,goi,sgoap,rqh,xpc,bui,spc,vprv,playlist_type/sig/AJfQdSswRAIgdaVXPmzPfNkTyiZ8BP1GiY9w3uKMWlhl-hdtH4CH-d0CICueYL0Ko7T-b60MQsdhaW0if4u4c9TjK4JRZ2Ldedg8/lsparams/hls_chunk_host,cps,met,mh,mm,mn,ms,mv,mvi,pl,rms,initcwndbps/lsig/APaTxxMwRAIgNJa3nRp6m6D4uR9tBDBDE0VI6wsLfa1BCGCKpC5Vi5cCICCQ9Uw4vjxTR4By27Rk80L20_NVoHd4tIocoXY68XLD/playlist/index.m3u8':
Duration: 00:02:52.39, start: 0.000000, bitrate: 1 kb/s
Program 0
Metadata:
variant_bitrate : 0
Stream #1:0: Audio: aac (LC), 44100 Hz, stereo, fltp, 132 kb/s
Metadata:
variant_bitrate : 0
id3v2_priv.com.apple.streaming.transportStreamTimestamp: \x00\x00\x00\x00\x00\x00\x00\x00
Stream mapping:
Stream #0:0 -> #0:0 (copy)
Stream #1:0 -> #0:1 (copy)
Output #0, mp4, to 'file:C:\Users\Kiera\Downloads\download test\Lemon Demon - Modify FAN ANIMATION.mp4.part':
Metadata:
encoder         : Lavf61.7.100
Stream #0:0(und): Video: vp9 (Profile 0) (vp09 / 0x39307076), yuv420p(tv, smpte170m/bt470bg/bt709), 1920x1080, q=2-31, 1530 kb/s, 18 fps, 18 tbr, 16k tbn (default)
Metadata:
variant_bitrate : 0
compatible_brands: iso6mp41
handler_name    : ISO Media file produced by Google Inc. Created on: 12/19/2025.
vendor_id       : [0][0][0][0]
major_brand     : dash
minor_version   : 0
creation_time   : 2025-12-20T02:15:18.000000Z
Stream #0:1: Audio: aac (LC) (mp4a / 0x6134706D), 44100 Hz, stereo, fltp, 132 kb/s
Metadata:
variant_bitrate : 0
id3v2_priv.com.apple.streaming.transportStreamTimestamp: \x00\x00\x00\x00\x00\x00\x00\x00
Press [q] to stop, [?] for help
[https @ 0000022250e2b6c0] Opening 'https://rr5---sn-vgqsknzy.googlevideo.com/videoplayback/id/7f48348f39b49980/itag/234/source/youtube/expire/1766218517/ei/tQZGacf7MNOplu8P2o-CwAw/ip/217.180.221.118/requiressl/yes/ratebypass/yes/pfa/1/goi/133/sgoap/clen%3D2792933%3Bdur%3D172.501%3Bgir%3Dyes%3Bitag%3D140%3Blmt%3D1739113800760800/rqh/1/hls_chunk_host/rr5---sn-vgqsknzy.googlevideo.com/xpc/EgVo2aDSNQ%3D%3D/cps/248/met/1766196917,/mh/ye/mm/31,26/mn/sn-vgqsknzy,sn-aj5ua5-5c/ms/au,onr/mv/m/mvi/5/pl/24/rms/au,au/initcwndbps/1211250/bui/AYUSA3Btm7p0JZASuyna09CafjWWJHNtSZRZkUOktxNiYAPXyRgpFgC_zwKNVorCl-APL44YhywXWYyq/spc/wH4Qq53qyehFjD7tA396rwOac0N7SgHgCrrL7yW0fmJfE0PQEnlcpACn3o3AEIUf/vprv/1/playlist_type/DVR/txp/4532534/mt/1766196543/fvip/2/keepalive/yes/fexp/51552689,51565115,51565681,51580968/sparams/expire,ei,ip,id,itag,source,requiressl,ratebypass,pfa,goi,sgoap,rqh,xpc,bui,spc,vprv,playlist_type/sig/AJfQdSswRAIgdaVXPmzPfNkTyiZ8BP1GiY9w3uKMWlhl-hdtH4CH-d0CICueYL0Ko7T-b60MQsdhaW0if4u4c9TjK4JRZ2Ldedg8/lsparams/hls_chunk_host,cps,met,mh,mm,mn,ms,mv,mvi,pl,rms,initcwndbps/lsig/APaTxxMwRAIgNJa3nRp6m6D4uR9tBDBDE0VI6wsLfa1BCGCKpC5Vi5cCICCQ9Uw4vjxTR4By27Rk80L20_NVoHd4tIocoXY68XLD/playlist/index.m3u8/begin/8278/len/3278/goap/slices%3D0-324648/gosq/2/file/seg.ts' for reading
[https @ 00000222505ee5c0] Opening 'https://rr5---sn-vgqsknzy.googlevideo.com/videoplayback/id/7f48348f39b49980/itag/616/source/youtube/expire/1766218517/ei/tQZGacf7MNOplu8P2o-CwAw/ip/217.180.221.118/requiressl/yes/ratebypass/yes/pfa/1/wft/1/sgovp/clen%3D59056646%3Bdur%3D172.389%3Bgir%3Dyes%3Bitag%3D356%3Blmt%3D1731552233300740/rqh/1/hls_chunk_host/rr5---sn-vgqsknzy.googlevideo.com/xpc/EgVo2aDSNQ%3D%3D/cps/248/met/1766196917,/mh/ye/mm/31,26/mn/sn-vgqsknzy,sn-aj5ua5-5c/ms/au,onr/mv/m/mvi/5/pl/24/rms/au,au/initcwndbps/1211250/bui/AYUSA3Btm7p0JZASuyna09CafjWWJHNtSZRZkUOktxNiYAPXyRgpFgC_zwKNVorCl-APL44YhywXWYyq/spc/wH4Qq53qyehFjD7tA396rwOac0N7SgHgCrrL7yW0fmJfE0PQEnlcpACn3o3AEIUf/vprv/1/playlist_type/DVR/txp/4532434/mt/1766196543/fvip/2/keepalive/yes/fexp/51552689,51565115,51565681,51580968/sparams/expire,ei,ip,id,itag,source,requiressl,ratebypass,pfa,wft,sgovp,rqh,xpc,bui,spc,vprv,playlist_type/sig/AJfQdSswRgIhAJ4mnqRZGnhs5-X8C74EDLxtGi2RjENPaHpC3rGYYKTwAiEAq72ojxBM8x5bn83e5sPXl0J8JcS325ed9rfAmwnXbzc%3D/lsparams/hls_chunk_host,cps,met,mh,mm,mn,ms,mv,mvi,pl,rms,initcwndbps/lsig/APaTxxMwRgIhAJg50DgRpZzjuliKlUhoWk6LUA4b52K96FgPTgWwwPTtAiEAr5IZ07_lw6qJggSv5lvdPTdtR6K0A3cPe6LOBdhGHgw%3D/playlist/index.m3u8/govp/slices%3D0-219,2461243-3556952/gosq/2/file/seg.ts' for reading
[https @ 000002225107e840] Opening 'https://rr5---sn-vgqsknzy.googlevideo.com/videoplayback/id/7f48348f39b49980/itag/234/source/youtube/expire/1766218517/ei/tQZGacf7MNOplu8P2o-CwAw/ip/217.180.221.118/requiressl/yes/ratebypass/yes/pfa/1/goi/133/sgoap/clen%3D2792933%3Bdur%3D172.501%3Bgir%3Dyes%3Bitag%3D140%3Blmt%3D1739113800760800/rqh/1/hls_chunk_host/rr5---sn-vgqsknzy.googlevideo.com/xpc/EgVo2aDSNQ%3D%3D/cps/248/met/1766196917,/mh/ye/mm/31,26/mn/sn-vgqsknzy,sn-aj5ua5-5c/ms/au,onr/mv/m/mvi/5/pl/24/rms/au,au/initcwndbps/1211250/bui/AYUSA3Btm7p0JZASuyna09CafjWWJHNtSZRZkUOktxNiYAPXyRgpFgC_zwKNVorCl-APL44YhywXWYyq/spc/wH4Qq53qyehFjD7tA396rwOac0N7SgHgCrrL7yW0fmJfE0PQEnlcpACn3o3AEIUf/vprv/1/playlist_type/DVR/txp/4532534/mt/1766196543/fvip/2/keepalive/yes/fexp/51552689,51565115,51565681,51580968/sparams/expire,ei,ip,id,itag,source,requiressl,ratebypass,pfa,goi,sgoap,rqh,xpc,bui,spc,vprv,playlist_type/sig/AJfQdSswRAIgdaVXPmzPfNkTyiZ8BP1GiY9w3uKMWlhl-hdtH4CH-d0CICueYL0Ko7T-b60MQsdhaW0if4u4c9TjK4JRZ2Ldedg8/lsparams/hls_chunk_host,cps,met,mh,mm,mn,ms,mv,mvi,pl,rms,initcwndbps/lsig/APaTxxMwRAIgNJa3nRp6m6D4uR9tBDBDE0VI6wsLfa1BCGCKpC5Vi5cCICCQ9Uw4vjxTR4By27Rk80L20_NVoHd4tIocoXY68XLD/playlist/index.m3u8/begin/11556/len/4000/goap/slices%3D0-722,163125-324648/gosq/3/file/seg.ts' for reading
[https @ 00000222505cc600] Opening 'https://rr5---sn-vgqsknzy.googlevideo.com/videoplayback/id/7f48348f39b49980/itag/616/source/youtube/expire/1766218517/ei/tQZGacf7MNOplu8P2o-CwAw/ip/217.180.221.118/requiressl/yes/ratebypass/yes/pfa/1/wft/1/sgovp/clen%3D59056646%3Bdur%3D172.389%3Bgir%3Dyes%3Bitag%3D356%3Blmt%3D1731552233300740/rqh/1/hls_chunk_host/rr5---sn-vgqsknzy.googlevideo.com/xpc/EgVo2aDSNQ%3D%3D/cps/248/met/1766196917,/mh/ye/mm/31,26/mn/sn-vgqsknzy,sn-aj5ua5-5c/ms/au,onr/mv/m/mvi/5/pl/24/rms/au,au/initcwndbps/1211250/bui/AYUSA3Btm7p0JZASuyna09CafjWWJHNtSZRZkUOktxNiYAPXyRgpFgC_zwKNVorCl-APL44YhywXWYyq/spc/wH4Qq53qyehFjD7tA396rwOac0N7SgHgCrrL7yW0fmJfE0PQEnlcpACn3o3AEIUf/vprv/1/playlist_type/DVR/txp/4532434/mt/1766196543/fvip/2/keepalive/yes/fexp/51552689,51565115,51565681,51580968/sparams/expire,ei,ip,id,itag,source,requiressl,ratebypass,pfa,wft,sgovp,rqh,xpc,bui,spc,vprv,playlist_type/sig/AJfQdSswRgIhAJ4mnqRZGnhs5-X8C74EDLxtGi2RjENPaHpC3rGYYKTwAiEAq72ojxBM8x5bn83e5sPXl0J8JcS325ed9rfAmwnXbzc%3D/lsparams/hls_chunk_host,cps,met,mh,mm,mn,ms,mv,mvi,pl,rms,initcwndbps/lsig/APaTxxMwRgIhAJg50DgRpZzjuliKlUhoWk6LUA4b52K96FgPTgWwwPTtAiEAr5IZ07_lw6qJggSv5lvdPTdtR6K0A3cPe6LOBdhGHgw%3D/playlist/index.m3u8/govp/slices%3D0-219,3556953-5155327/gosq/3/file/seg.ts' for reading
[https @ 0000022250e2b6c0] Opening 'https://rr5---sn-vgqsknzy.googlevideo.com/videoplayback/id/7f48348f39b49980/itag/234/source/youtube/expire/1766218517/ei/tQZGacf7MNOplu8P2o-CwAw/ip/217.180.221.118/requiressl/yes/ratebypass/yes/pfa/1/goi/133/sgoap/clen%3D2792933%3Bdur%3D172.501%3Bgir%3Dyes%3Bitag%3D140%3Blmt%3D1739113800760800/rqh/1/hls_chunk_host/rr5---sn-vgqsknzy.googlevideo.com/xpc/EgVo2aDSNQ%3D%3D/cps/248/met/1766196917,/mh/ye/mm/31,26/mn/sn-vgqsknzy,sn-aj5ua5-5c/ms/au,onr/mv/m/mvi/5/pl/24/rms/au,au/initcwndbps/1211250/bui/AYUSA3Btm7p0JZASuyna09CafjWWJHNtSZRZkUOktxNiYAPXyRgpFgC_zwKNVorCl-APL44YhywXWYyq/spc/wH4Qq53qyehFjD7tA396rwOac0N7SgHgCrrL7yW0fmJfE0PQEnlcpACn3o3AEIUf/vprv/1/playlist_type/DVR/txp/4532534/mt/1766196543/fvip/2/keepalive/yes/fexp/51552689,51565115,51565681,51580968/sparams/expire,ei,ip,id,itag,source,requiressl,ratebypass,pfa,goi,sgoap,rqh,xpc,bui,spc,vprv,playlist_type/sig/AJfQdSswRAIgdaVXPmzPfNkTyiZ8BP1GiY9w3uKMWlhl-hdtH4CH-d0CICueYL0Ko7T-b60MQsdhaW0if4u4c9TjK4JRZ2Ldedg8/lsparams/hls_chunk_host,cps,met,mh,mm,mn,ms,mv,mvi,pl,rms,initcwndbps/lsig/APaTxxMwRAIgNJa3nRp6m6D4uR9tBDBDE0VI6wsLfa1BCGCKpC5Vi5cCICCQ9Uw4vjxTR4By27Rk80L20_NVoHd4tIocoXY68XLD/playlist/index.m3u8/begin/15556/len/5222/goap/slices%3D0-722,163125-486136/gosq/4/file/seg.ts' for reading
[https @ 00000222505ee5c0] Opening 'https://rr5---sn-vgqsknzy.googlevideo.com/videoplayback/id/7f48348f39b49980/itag/616/source/youtube/expire/1766218517/ei/tQZGacf7MNOplu8P2o-CwAw/ip/217.180.221.118/requiressl/yes/ratebypass/yes/pfa/1/wft/1/sgovp/clen%3D59056646%3Bdur%3D172.389%3Bgir%3Dyes%3Bitag%3D356%3Blmt%3D1731552233300740/rqh/1/hls_chunk_host/rr5---sn-vgqsknzy.googlevideo.com/xpc/EgVo2aDSNQ%3D%3D/cps/248/met/1766196917,/mh/ye/mm/31,26/mn/sn-vgqsknzy,sn-aj5ua5-5c/ms/au,onr/mv/m/mvi/5/pl/24/rms/au,au/initcwndbps/1211250/bui/AYUSA3Btm7p0JZASuyna09CafjWWJHNtSZRZkUOktxNiYAPXyRgpFgC_zwKNVorCl-APL44YhywXWYyq/spc/wH4Qq53qyehFjD7tA396rwOac0N7SgHgCrrL7yW0fmJfE0PQEnlcpACn3o3AEIUf/vprv/1/playlist_type/DVR/txp/4532434/mt/1766196543/fvip/2/keepalive/yes/fexp/51552689,51565115,51565681,51580968/sparams/expire,ei,ip,id,itag,source,requiressl,ratebypass,pfa,wft,sgovp,rqh,xpc,bui,spc,vprv,playlist_type/sig/AJfQdSswRgIhAJ4mnqRZGnhs5-X8C74EDLxtGi2RjENPaHpC3rGYYKTwAiEAq72ojxBM8x5bn83e5sPXl0J8JcS325ed9rfAmwnXbzc%3D/lsparams/hls_chunk_host,cps,met,mh,mm,mn,ms,mv,mvi,pl,rms,initcwndbps/lsig/APaTxxMwRgIhAJg50DgRpZzjuliKlUhoWk6LUA4b52K96FgPTgWwwPTtAiEAr5IZ07_lw6qJggSv5lvdPTdtR6K0A3cPe6LOBdhGHgw%3D/playlist/index.m3u8/govp/slices%3D0-219,5155328-7372811/gosq/4/file/seg.ts' for reading
[https @ 00000222505cc600] Opening 'https://rr5---sn-vgqsknzy.googlevideo.com/videoplayback/id/7f48348f39b49980/itag/616/source/youtube/expire/1766218517/ei/tQZGacf7MNOplu8P2o-CwAw/ip/217.180.221.118/requiressl/yes/ratebypass/yes/pfa/1/wft/1/sgovp/clen%3D59056646%3Bdur%3D172.389%3Bgir%3Dyes%3Bitag%3D356%3Blmt%3D1731552233300740/rqh/1/hls_chunk_host/rr5---sn-vgqsknzy.googlevideo.com/xpc/EgVo2aDSNQ%3D%3D/cps/248/met/1766196917,/mh/ye/mm/31,26/mn/sn-vgqsknzy,sn-aj5ua5-5c/ms/au,onr/mv/m/mvi/5/pl/24/rms/au,au/initcwndbps/1211250/bui/AYUSA3Btm7p0JZASuyna09CafjWWJHNtSZRZkUOktxNiYAPXyRgpFgC_zwKNVorCl-APL44YhywXWYyq/spc/wH4Qq53qyehFjD7tA396rwOac0N7SgHgCrrL7yW0fmJfE0PQEnlcpACn3o3AEIUf/vprv/1/playlist_type/DVR/txp/4532434/mt/1766196543/fvip/2/keepalive/yes/fexp/51552689,51565115,51565681,51580968/sparams/expire,ei,ip,id,itag,source,requiressl,ratebypass,pfa,wft,sgovp,rqh,xpc,bui,spc,vprv,playlist_type/sig/AJfQdSswRgIhAJ4mnqRZGnhs5-X8C74EDLxtGi2RjENPaHpC3rGYYKTwAiEAq72ojxBM8x5bn83e5sPXl0J8JcS325ed9rfAmwnXbzc%3D/lsparams/hls_chunk_host,cps,met,mh,mm,mn,ms,mv,mvi,pl,rms,initcwndbps/lsig/APaTxxMwRgIhAJg50DgRpZzjuliKlUhoWk6LUA4b52K96FgPTgWwwPTtAiEAr5IZ07_lw6qJggSv5lvdPTdtR6K0A3cPe6LOBdhGHgw%3D/playlist/index.m3u8/govp/slices%3D0-219,7372812-9674443/gosq/5/file/seg.ts' for reading
[https @ 000002225107e840] Opening 'https://rr5---sn-vgqsknzy.googlevideo.com/videoplayback/id/7f48348f39b49980/itag/234/source/youtube/expire/1766218517/ei/tQZGacf7MNOplu8P2o-CwAw/ip/217.180.221.118/requiressl/yes/ratebypass/yes/pfa/1/goi/133/sgoap/clen%3D2792933%3Bdur%3D172.501%3Bgir%3Dyes%3Bitag%3D140%3Blmt%3D1739113800760800/rqh/1/hls_chunk_host/rr5---sn-vgqsknzy.googlevideo.com/xpc/EgVo2aDSNQ%3D%3D/cps/248/met/1766196917,/mh/ye/mm/31,26/mn/sn-vgqsknzy,sn-aj5ua5-5c/ms/au,onr/mv/m/mvi/5/pl/24/rms/au,au/initcwndbps/1211250/bui/AYUSA3Btm7p0JZASuyna09CafjWWJHNtSZRZkUOktxNiYAPXyRgpFgC_zwKNVorCl-APL44YhywXWYyq/spc/wH4Qq53qyehFjD7tA396rwOac0N7SgHgCrrL7yW0fmJfE0PQEnlcpACn3o3AEIUf/vprv/1/playlist_type/DVR/txp/4532534/mt/1766196543/fvip/2/keepalive/yes/fexp/51552689,51565115,51565681,51580968/sparams/expire,ei,ip,id,itag,source,requiressl,ratebypass,pfa,goi,sgoap,rqh,xpc,bui,spc,vprv,playlist_type/sig/AJfQdSswRAIgdaVXPmzPfNkTyiZ8BP1GiY9w3uKMWlhl-hdtH4CH-d0CICueYL0Ko7T-b60MQsdhaW0if4u4c9TjK4JRZ2Ldedg8/lsparams/hls_chunk_host,cps,met,mh,mm,mn,ms,mv,mvi,pl,rms,initcwndbps/lsig/APaTxxMwRAIgNJa3nRp6m6D4uR9tBDBDE0VI6wsLfa1BCGCKpC5Vi5cCICCQ9Uw4vjxTR4By27Rk80L20_NVoHd4tIocoXY68XLD/playlist/index.m3u8/begin/20778/len/5666/goap/slices%3D0-722,324649-486136/gosq/5/file/seg.ts' for reading
[https @ 0000022250e2b6c0] Opening 'https://rr5---sn-vgqsknzy.googlevideo.com/videoplayback/id/7f48348f39b49980/itag/234/source/youtube/expire/1766218517/ei/tQZGacf7MNOplu8P2o-CwAw/ip/217.180.221.118/requiressl/yes/ratebypass/yes/pfa/1/goi/133/sgoap/clen%3D2792933%3Bdur%3D172.501%3Bgir%3Dyes%3Bitag%3D140%3Blmt%3D1739113800760800/rqh/1/hls_chunk_host/rr5---sn-vgqsknzy.googlevideo.com/xpc/EgVo2aDSNQ%3D%3D/cps/248/met/1766196917,/mh/ye/mm/31,26/mn/sn-vgqsknzy,sn-aj5ua5-5c/ms/au,onr/mv/m/mvi/5/pl/24/rms/au,au/initcwndbps/1211250/bui/AYUSA3Btm7p0JZASuyna09CafjWWJHNtSZRZkUOktxNiYAPXyRgpFgC_zwKNVorCl-APL44YhywXWYyq/spc/wH4Qq53qyehFjD7tA396rwOac0N7SgHgCrrL7yW0fmJfE0PQEnlcpACn3o3AEIUf/vprv/1/playlist_type/DVR/txp/4532534/mt/1766196543/fvip/2/keepalive/yes/fexp/51552689,51565115,51565681,51580968/sparams/expire,ei,ip,id,itag,source,requiressl,ratebypass,pfa,goi,sgoap,rqh,xpc,bui,spc,vprv,playlist_type/sig/AJfQdSswRAIgdaVXPmzPfNkTyiZ8BP1GiY9w3uKMWlhl-hdtH4CH-d0CICueYL0Ko7T-b60MQsdhaW0if4u4c9TjK4JRZ2Ldedg8/lsparams/hls_chunk_host,cps,met,mh,mm,mn,ms,mv,mvi,pl,rms,initcwndbps/lsig/APaTxxMwRAIgNJa3nRp6m6D4uR9tBDBDE0VI6wsLfa1BCGCKpC5Vi5cCICCQ9Uw4vjxTR4By27Rk80L20_NVoHd4tIocoXY68XLD/playlist/index.m3u8/begin/26444/len/5167/goap/slices%3D0-722,324649-647869/gosq/6/file/seg.ts' for reading
[https @ 00000222505ee5c0] Opening 'https://rr5---sn-vgqsknzy.googlevideo.com/videoplayback/id/7f48348f39b49980/itag/616/source/youtube/expire/1766218517/ei/tQZGacf7MNOplu8P2o-CwAw/ip/217.180.221.118/requiressl/yes/ratebypass/yes/pfa/1/wft/1/sgovp/clen%3D59056646%3Bdur%3D172.389%3Bgir%3Dyes%3Bitag%3D356%3Blmt%3D1731552233300740/rqh/1/hls_chunk_host/rr5---sn-vgqsknzy.googlevideo.com/xpc/EgVo2aDSNQ%3D%3D/cps/248/met/1766196917,/mh/ye/mm/31,26/mn/sn-vgqsknzy,sn-aj5ua5-5c/ms/au,onr/mv/m/mvi/5/pl/24/rms/au,au/initcwndbps/1211250/bui/AYUSA3Btm7p0JZASuyna09CafjWWJHNtSZRZkUOktxNiYAPXyRgpFgC_zwKNVorCl-APL44YhywXWYyq/spc/wH4Qq53qyehFjD7tA396rwOac0N7SgHgCrrL7yW0fmJfE0PQEnlcpACn3o3AEIUf/vprv/1/playlist_type/DVR/txp/4532434/mt/1766196543/fvip/2/keepalive/yes/fexp/51552689,51565115,51565681,51580968/sparams/expire,ei,ip,id,itag,source,requiressl,ratebypass,pfa,wft,sgovp,rqh,xpc,bui,spc,vprv,playlist_type/sig/AJfQdSswRgIhAJ4mnqRZGnhs5-X8C74EDLxtGi2RjENPaHpC3rGYYKTwAiEAq72ojxBM8x5bn83e5sPXl0J8JcS325ed9rfAmwnXbzc%3D/lsparams/hls_chunk_host,cps,met,mh,mm,mn,ms,mv,mvi,pl,rms,initcwndbps/lsig/APaTxxMwRgIhAJg50DgRpZzjuliKlUhoWk6LUA4b52K96FgPTgWwwPTtAiEAr5IZ07_lw6qJggSv5lvdPTdtR6K0A3cPe6LOBdhGHgw%3D/playlist/index.m3u8/govp/slices%3D0-219,9674444-11912279/gosq/6/file/seg.ts' for reading
frame=  374 fps=0.0 q=-1.0 size=    7424KiB time=00:00:20.77 bitrate=2927.0kbits/s speed=41.2x
[https @ 000002225107e840] Opening 'https://rr5---sn-vgqsknzy.googlevideo.com/videoplayback/id/7f48348f39b49980/itag/234/source/youtube/expire/1766218517/ei/tQZGacf7MNOplu8P2o-CwAw/ip/217.180.221.118/requiressl/yes/ratebypass/yes/pfa/1/goi/133/sgoap/clen%3D2792933%3Bdur%3D172.501%3Bgir%3Dyes%3Bitag%3D140%3Blmt%3D1739113800760800/rqh/1/hls_chunk_host/rr5---sn-vgqsknzy.googlevideo.com/xpc/EgVo2aDSNQ%3D%3D/cps/248/met/1766196917,/mh/ye/mm/31,26/mn/sn-vgqsknzy,sn-aj5ua5-5c/ms/au,onr/mv/m/mvi/5/pl/24/rms/au,au/initcwndbps/1211250/bui/AYUSA3Btm7p0JZASuyna09CafjWWJHNtSZRZkUOktxNiYAPXyRgpFgC_zwKNVorCl-APL44YhywXWYyq/spc/wH4Qq53qyehFjD7tA396rwOac0N7SgHgCrrL7yW0fmJfE0PQEnlcpACn3o3AEIUf/vprv/1/playlist_type/DVR/txp/4532534/mt/1766196543/fvip/2/keepalive/yes/fexp/51552689,51565115,51565681,51580968/sparams/expire,ei,ip,id,itag,source,requiressl,ratebypass,pfa,goi,sgoap,rqh,xpc,bui,spc,vprv,playlist_type/sig/AJfQdSswRAIgdaVXPmzPfNkTyiZ8BP1GiY9w3uKMWlhl-hdtH4CH-d0CICueYL0Ko7T-b60MQsdhaW0if4u4c9TjK4JRZ2Ldedg8/lsparams/hls_chunk_host,cps,met,mh,mm,mn,ms,mv,mvi,pl,rms,initcwndbps/lsig/APaTxxMwRAIgNJa3nRp6m6D4uR9tBDBDE0VI6wsLfa1BCGCKpC5Vi5cCICCQ9Uw4vjxTR4By27Rk80L20_NVoHd4tIocoXY68XLD/playlist/index.m3u8/begin/31611/len/4889/goap/slices%3D0-722,486137-647869/gosq/7/file/seg.ts' for reading
[https @ 00000222505cc600] Opening 'https://rr5---sn-vgqsknzy.googlevideo.com/videoplayback/id/7f48348f39b49980/itag/616/source/youtube/expire/1766218517/ei/tQZGacf7MNOplu8P2o-CwAw/ip/217.180.221.118/requiressl/yes/ratebypass/yes/pfa/1/wft/1/sgovp/clen%3D59056646%3Bdur%3D172.389%3Bgir%3Dyes%3Bitag%3D356%3Blmt%3D1731552233300740/rqh/1/hls_chunk_host/rr5---sn-vgqsknzy.googlevideo.com/xpc/EgVo2aDSNQ%3D%3D/cps/248/met/1766196917,/mh/ye/mm/31,26/mn/sn-vgqsknzy,sn-aj5ua5-5c/ms/au,onr/mv/m/mvi/5/pl/24/rms/au,au/initcwndbps/1211250/bui/AYUSA3Btm7p0JZASuyna09CafjWWJHNtSZRZkUOktxNiYAPXyRgpFgC_zwKNVorCl-APL44YhywXWYyq/spc/wH4Qq53qyehFjD7tA396rwOac0N7SgHgCrrL7yW0fmJfE0PQEnlcpACn3o3AEIUf/vprv/1/playlist_type/DVR/txp/4532434/mt/1766196543/fvip/2/keepalive/yes/fexp/51552689,51565115,51565681,51580968/sparams/expire,ei,ip,id,itag,source,requiressl,ratebypass,pfa,wft,sgovp,rqh,xpc,bui,spc,vprv,playlist_type/sig/AJfQdSswRgIhAJ4mnqRZGnhs5-X8C74EDLxtGi2RjENPaHpC3rGYYKTwAiEAq72ojxBM8x5bn83e5sPXl0J8JcS325ed9rfAmwnXbzc%3D/lsparams/hls_chunk_host,cps,met,mh,mm,mn,ms,mv,mvi,pl,rms,initcwndbps/lsig/APaTxxMwRgIhAJg50DgRpZzjuliKlUhoWk6LUA4b52K96FgPTgWwwPTtAiEAr5IZ07_lw6qJggSv5lvdPTdtR6K0A3cPe6LOBdhGHgw%3D/playlist/index.m3u8/govp/slices%3D0-219,11912280-13135953/gosq/7/file/seg.ts' for reading
[https @ 0000022250e2b6c0] Opening 'https://rr5---sn-vgqsknzy.googlevideo.com/videoplayback/id/7f48348f39b49980/itag/234/source/youtube/expire/1766218517/ei/tQZGacf7MNOplu8P2o-CwAw/ip/217.180.221.118/requiressl/yes/ratebypass/yes/pfa/1/goi/133/sgoap/clen%3D2792933%3Bdur%3D172.501%3Bgir%3Dyes%3Bitag%3D140%3Blmt%3D1739113800760800/rqh/1/hls_chunk_host/rr5---sn-vgqsknzy.googlevideo.com/xpc/EgVo2aDSNQ%3D%3D/cps/248/met/1766196917,/mh/ye/mm/31,26/mn/sn-vgqsknzy,sn-aj5ua5-5c/ms/au,onr/mv/m/mvi/5/pl/24/rms/au,au/initcwndbps/1211250/bui/AYUSA3Btm7p0JZASuyna09CafjWWJHNtSZRZkUOktxNiYAPXyRgpFgC_zwKNVorCl-APL44YhywXWYyq/spc/wH4Qq53qyehFjD7tA396rwOac0N7SgHgCrrL7yW0fmJfE0PQEnlcpACn3o3AEIUf/vprv/1/playlist_type/DVR/txp/4532534/mt/1766196543/fvip/2/keepalive/yes/fexp/51552689,51565115,51565681,51580968/sparams/expire,ei,ip,id,itag,source,requiressl,ratebypass,pfa,goi,sgoap,rqh,xpc,bui,spc,vprv,playlist_type/sig/AJfQdSswRAIgdaVXPmzPfNkTyiZ8BP1GiY9w3uKMWlhl-hdtH4CH-d0CICueYL0Ko7T-b60MQsdhaW0if4u4c9TjK4JRZ2Ldedg8/lsparams/hls_chunk_host,cps,met,mh,mm,mn,ms,mv,mvi,pl,rms,initcwndbps/lsig/APaTxxMwRAIgNJa3nRp6m6D4uR9tBDBDE0VI6wsLfa1BCGCKpC5Vi5cCICCQ9Uw4vjxTR4By27Rk80L20_NVoHd4tIocoXY68XLD/playlist/index.m3u8/begin/36500/len/4444/goap/slices%3D0-722,486137-809360/gosq/8/file/seg.ts' for reading
[https @ 00000222505ee5c0] Opening 'https://rr5---sn-vgqsknzy.googlevideo.com/videoplayback/id/7f48348f39b49980/itag/616/source/youtube/expire/1766218517/ei/tQZGacf7MNOplu8P2o-CwAw/ip/217.180.221.118/requiressl/yes/ratebypass/yes/pfa/1/wft/1/sgovp/clen%3D59056646%3Bdur%3D172.389%3Bgir%3Dyes%3Bitag%3D356%3Blmt%3D1731552233300740/rqh/1/hls_chunk_host/rr5---sn-vgqsknzy.googlevideo.com/xpc/EgVo2aDSNQ%3D%3D/cps/248/met/1766196917,/mh/ye/mm/31,26/mn/sn-vgqsknzy,sn-aj5ua5-5c/ms/au,onr/mv/m/mvi/5/pl/24/rms/au,au/initcwndbps/1211250/bui/AYUSA3Btm7p0JZASuyna09CafjWWJHNtSZRZkUOktxNiYAPXyRgpFgC_zwKNVorCl-APL44YhywXWYyq/spc/wH4Qq53qyehFjD7tA396rwOac0N7SgHgCrrL7yW0fmJfE0PQEnlcpACn3o3AEIUf/vprv/1/playlist_type/DVR/txp/4532434/mt/1766196543/fvip/2/keepalive/yes/fexp/51552689,51565115,51565681,51580968/sparams/expire,ei,ip,id,itag,source,requiressl,ratebypass,pfa,wft,sgovp,rqh,xpc,bui,spc,vprv,playlist_type/sig/AJfQdSswRgIhAJ4mnqRZGnhs5-X8C74EDLxtGi2RjENPaHpC3rGYYKTwAiEAq72ojxBM8x5bn83e5sPXl0J8JcS325ed9rfAmwnXbzc%3D/lsparams/hls_chunk_host,cps,met,mh,mm,mn,ms,mv,mvi,pl,rms,initcwndbps/lsig/APaTxxMwRgIhAJg50DgRpZzjuliKlUhoWk6LUA4b52K96FgPTgWwwPTtAiEAr5IZ07_lw6qJggSv5lvdPTdtR6K0A3cPe6LOBdhGHgw%3D/playlist/index.m3u8/govp/slices%3D0-219,13135954-14818213/gosq/8/file/seg.ts' for reading
[https @ 00000222505cc600] Opening 'https://rr5---sn-vgqsknzy.googlevideo.com/videoplayback/id/7f48348f39b49980/itag/616/source/youtube/expire/1766218517/ei/tQZGacf7MNOplu8P2o-CwAw/ip/217.180.221.118/requiressl/yes/ratebypass/yes/pfa/1/wft/1/sgovp/clen%3D59056646%3Bdur%3D172.389%3Bgir%3Dyes%3Bitag%3D356%3Blmt%3D1731552233300740/rqh/1/hls_chunk_host/rr5---sn-vgqsknzy.googlevideo.com/xpc/EgVo2aDSNQ%3D%3D/cps/248/met/1766196917,/mh/ye/mm/31,26/mn/sn-vgqsknzy,sn-aj5ua5-5c/ms/au,onr/mv/m/mvi/5/pl/24/rms/au,au/initcwndbps/1211250/bui/AYUSA3Btm7p0JZASuyna09CafjWWJHNtSZRZkUOktxNiYAPXyRgpFgC_zwKNVorCl-APL44YhywXWYyq/spc/wH4Qq53qyehFjD7tA396rwOac0N7SgHgCrrL7yW0fmJfE0PQEnlcpACn3o3AEIUf/vprv/1/playlist_type/DVR/txp/4532434/mt/1766196543/fvip/2/keepalive/yes/fexp/51552689,51565115,51565681,51580968/sparams/expire,ei,ip,id,itag,source,requiressl,ratebypass,pfa,wft,sgovp,rqh,xpc,bui,spc,vprv,playlist_type/sig/AJfQdSswRgIhAJ4mnqRZGnhs5-X8C74EDLxtGi2RjENPaHpC3rGYYKTwAiEAq72ojxBM8x5bn83e5sPXl0J8JcS325ed9rfAmwnXbzc%3D/lsparams/hls_chunk_host,cps,met,mh,mm,mn,ms,mv,mvi,pl,rms,initcwndbps/lsig/APaTxxMwRgIhAJg50DgRpZzjuliKlUhoWk6LUA4b52K96FgPTgWwwPTtAiEAr5IZ07_lw6qJggSv5lvdPTdtR6K0A3cPe6LOBdhGHgw%3D/playlist/index.m3u8/govp/slices%3D0-219,14818214-16318429/gosq/9/file/seg.ts' for reading
[https @ 000002225107e840] Opening 'https://rr5---sn-vgqsknzy.googlevideo.com/videoplayback/id/7f48348f39b49980/itag/234/source/youtube/expire/1766218517/ei/tQZGacf7MNOplu8P2o-CwAw/ip/217.180.221.118/requiressl/yes/ratebypass/yes/pfa/1/goi/133/sgoap/clen%3D2792933%3Bdur%3D172.501%3Bgir%3Dyes%3Bitag%3D140%3Blmt%3D1739113800760800/rqh/1/hls_chunk_host/rr5---sn-vgqsknzy.googlevideo.com/xpc/EgVo2aDSNQ%3D%3D/cps/248/met/1766196917,/mh/ye/mm/31,26/mn/sn-vgqsknzy,sn-aj5ua5-5c/ms/au,onr/mv/m/mvi/5/pl/24/rms/au,au/initcwndbps/1211250/bui/AYUSA3Btm7p0JZASuyna09CafjWWJHNtSZRZkUOktxNiYAPXyRgpFgC_zwKNVorCl-APL44YhywXWYyq/spc/wH4Qq53qyehFjD7tA396rwOac0N7SgHgCrrL7yW0fmJfE0PQEnlcpACn3o3AEIUf/vprv/1/playlist_type/DVR/txp/4532534/mt/1766196543/fvip/2/keepalive/yes/fexp/51552689,51565115,51565681,51580968/sparams/expire,ei,ip,id,itag,source,requiressl,ratebypass,pfa,goi,sgoap,rqh,xpc,bui,spc,vprv,playlist_type/sig/AJfQdSswRAIgdaVXPmzPfNkTyiZ8BP1GiY9w3uKMWlhl-hdtH4CH-d0CICueYL0Ko7T-b60MQsdhaW0if4u4c9TjK4JRZ2Ldedg8/lsparams/hls_chunk_host,cps,met,mh,mm,mn,ms,mv,mvi,pl,rms,initcwndbps/lsig/APaTxxMwRAIgNJa3nRp6m6D4uR9tBDBDE0VI6wsLfa1BCGCKpC5Vi5cCICCQ9Uw4vjxTR4By27Rk80L20_NVoHd4tIocoXY68XLD/playlist/index.m3u8/begin/40944/len/4500/goap/slices%3D0-722,647870-809360/gosq/9/file/seg.ts' for reading
[https @ 0000022250e2b6c0] Opening 'https://rr5---sn-vgqsknzy.googlevideo.com/videoplayback/id/7f48348f39b49980/itag/234/source/youtube/expire/1766218517/ei/tQZGacf7MNOplu8P2o-CwAw/ip/217.180.221.118/requiressl/yes/ratebypass/yes/pfa/1/goi/133/sgoap/clen%3D2792933%3Bdur%3D172.501%3Bgir%3Dyes%3Bitag%3D140%3Blmt%3D1739113800760800/rqh/1/hls_chunk_host/rr5---sn-vgqsknzy.googlevideo.com/xpc/EgVo2aDSNQ%3D%3D/cps/248/met/1766196917,/mh/ye/mm/31,26/mn/sn-vgqsknzy,sn-aj5ua5-5c/ms/au,onr/mv/m/mvi/5/pl/24/rms/au,au/initcwndbps/1211250/bui/AYUSA3Btm7p0JZASuyna09CafjWWJHNtSZRZkUOktxNiYAPXyRgpFgC_zwKNVorCl-APL44YhywXWYyq/spc/wH4Qq53qyehFjD7tA396rwOac0N7SgHgCrrL7yW0fmJfE0PQEnlcpACn3o3AEIUf/vprv/1/playlist_type/DVR/txp/4532534/mt/1766196543/fvip/2/keepalive/yes/fexp/51552689,51565115,51565681,51580968/sparams/expire,ei,ip,id,itag,source,requiressl,ratebypass,pfa,goi,sgoap,rqh,xpc,bui,spc,vprv,playlist_type/sig/AJfQdSswRAIgdaVXPmzPfNkTyiZ8BP1GiY9w3uKMWlhl-hdtH4CH-d0CICueYL0Ko7T-b60MQsdhaW0if4u4c9TjK4JRZ2Ldedg8/lsparams/hls_chunk_host,cps,met,mh,mm,mn,ms,mv,mvi,pl,rms,initcwndbps/lsig/APaTxxMwRAIgNJa3nRp6m6D4uR9tBDBDE0VI6wsLfa1BCGCKpC5Vi5cCICCQ9Uw4vjxTR4By27Rk80L20_NVoHd4tIocoXY68XLD/playlist/index.m3u8/begin/45444/len/5278/goap/slices%3D0-722,647870-971026/gosq/10/file/seg.ts' for reading
[https @ 00000222505ee5c0] Opening 'https://rr5---sn-vgqsknzy.googlevideo.com/videoplayback/id/7f48348f39b49980/itag/616/source/youtube/expire/1766218517/ei/tQZGacf7MNOplu8P2o-CwAw/ip/217.180.221.118/requiressl/yes/ratebypass/yes/pfa/1/wft/1/sgovp/clen%3D59056646%3Bdur%3D172.389%3Bgir%3Dyes%3Bitag%3D356%3Blmt%3D1731552233300740/rqh/1/hls_chunk_host/rr5---sn-vgqsknzy.googlevideo.com/xpc/EgVo2aDSNQ%3D%3D/cps/248/met/1766196917,/mh/ye/mm/31,26/mn/sn-vgqsknzy,sn-aj5ua5-5c/ms/au,onr/mv/m/mvi/5/pl/24/rms/au,au/initcwndbps/1211250/bui/AYUSA3Btm7p0JZASuyna09CafjWWJHNtSZRZkUOktxNiYAPXyRgpFgC_zwKNVorCl-APL44YhywXWYyq/spc/wH4Qq53qyehFjD7tA396rwOac0N7SgHgCrrL7yW0fmJfE0PQEnlcpACn3o3AEIUf/vprv/1/playlist_type/DVR/txp/4532434/mt/1766196543/fvip/2/keepalive/yes/fexp/51552689,51565115,51565681,51580968/sparams/expire,ei,ip,id,itag,source,requiressl,ratebypass,pfa,wft,sgovp,rqh,xpc,bui,spc,vprv,playlist_type/sig/AJfQdSswRgIhAJ4mnqRZGnhs5-X8C74EDLxtGi2RjENPaHpC3rGYYKTwAiEAq72ojxBM8x5bn83e5sPXl0J8JcS325ed9rfAmwnXbzc%3D/lsparams/hls_chunk_host,cps,met,mh,mm,mn,ms,mv,mvi,pl,rms,initcwndbps/lsig/APaTxxMwRgIhAJg50DgRpZzjuliKlUhoWk6LUA4b52K96FgPTgWwwPTtAiEAr5IZ07_lw6qJggSv5lvdPTdtR6K0A3cPe6LOBdhGHgw%3D/playlist/index.m3u8/govp/slices%3D0-219,16318430-18653611/gosq/10/file/seg.ts' for reading
frame=  737 fps=724 q=-1.0 size=   14848KiB time=00:00:40.94 bitrate=2970.8kbits/s speed=40.2x
[https @ 00000222505cc600] Opening 'https://rr5---sn-vgqsknzy.googlevideo.com/videoplayback/id/7f48348f39b49980/itag/616/source/youtube/expire/1766218517/ei/tQZGacf7MNOplu8P2o-CwAw/ip/217.180.221.118/requiressl/yes/ratebypass/yes/pfa/1/wft/1/sgovp/clen%3D59056646%3Bdur%3D172.389%3Bgir%3Dyes%3Bitag%3D356%3Blmt%3D1731552233300740/rqh/1/hls_chunk_host/rr5---sn-vgqsknzy.googlevideo.com/xpc/EgVo2aDSNQ%3D%3D/cps/248/met/1766196917,/mh/ye/mm/31,26/mn/sn-vgqsknzy,sn-aj5ua5-5c/ms/au,onr/mv/m/mvi/5/pl/24/rms/au,au/initcwndbps/1211250/bui/AYUSA3Btm7p0JZASuyna09CafjWWJHNtSZRZkUOktxNiYAPXyRgpFgC_zwKNVorCl-APL44YhywXWYyq/spc/wH4Qq53qyehFjD7tA396rwOac0N7SgHgCrrL7yW0fmJfE0PQEnlcpACn3o3AEIUf/vprv/1/playlist_type/DVR/txp/4532434/mt/1766196543/fvip/2/keepalive/yes/fexp/51552689,51565115,51565681,51580968/sparams/expire,ei,ip,id,itag,source,requiressl,ratebypass,pfa,wft,sgovp,rqh,xpc,bui,spc,vprv,playlist_type/sig/AJfQdSswRgIhAJ4mnqRZGnhs5-X8C74EDLxtGi2RjENPaHpC3rGYYKTwAiEAq72ojxBM8x5bn83e5sPXl0J8JcS325ed9rfAmwnXbzc%3D/lsparams/hls_chunk_host,cps,met,mh,mm,mn,ms,mv,mvi,pl,rms,initcwndbps/lsig/APaTxxMwRgIhAJg50DgRpZzjuliKlUhoWk6LUA4b52K96FgPTgWwwPTtAiEAr5IZ07_lw6qJggSv5lvdPTdtR6K0A3cPe6LOBdhGHgw%3D/playlist/index.m3u8/govp/slices%3D0-219,18653612-20945078/gosq/11/file/seg.ts' for reading
[https @ 000002225107e840] Opening 'https://rr5---sn-vgqsknzy.googlevideo.com/videoplayback/id/7f48348f39b49980/itag/234/source/youtube/expire/1766218517/ei/tQZGacf7MNOplu8P2o-CwAw/ip/217.180.221.118/requiressl/yes/ratebypass/yes/pfa/1/goi/133/sgoap/clen%3D2792933%3Bdur%3D172.501%3Bgir%3Dyes%3Bitag%3D140%3Blmt%3D1739113800760800/rqh/1/hls_chunk_host/rr5---sn-vgqsknzy.googlevideo.com/xpc/EgVo2aDSNQ%3D%3D/cps/248/met/1766196917,/mh/ye/mm/31,26/mn/sn-vgqsknzy,sn-aj5ua5-5c/ms/au,onr/mv/m/mvi/5/pl/24/rms/au,au/initcwndbps/1211250/bui/AYUSA3Btm7p0JZASuyna09CafjWWJHNtSZRZkUOktxNiYAPXyRgpFgC_zwKNVorCl-APL44YhywXWYyq/spc/wH4Qq53qyehFjD7tA396rwOac0N7SgHgCrrL7yW0fmJfE0PQEnlcpACn3o3AEIUf/vprv/1/playlist_type/DVR/txp/4532534/mt/1766196543/fvip/2/keepalive/yes/fexp/51552689,51565115,51565681,51580968/sparams/expire,ei,ip,id,itag,source,requiressl,ratebypass,pfa,goi,sgoap,rqh,xpc,bui,spc,vprv,playlist_type/sig/AJfQdSswRAIgdaVXPmzPfNkTyiZ8BP1GiY9w3uKMWlhl-hdtH4CH-d0CICueYL0Ko7T-b60MQsdhaW0if4u4c9TjK4JRZ2Ldedg8/lsparams/hls_chunk_host,cps,met,mh,mm,mn,ms,mv,mvi,pl,rms,initcwndbps/lsig/APaTxxMwRAIgNJa3nRp6m6D4uR9tBDBDE0VI6wsLfa1BCGCKpC5Vi5cCICCQ9Uw4vjxTR4By27Rk80L20_NVoHd4tIocoXY68XLD/playlist/index.m3u8/begin/50722/len/5389/goap/slices%3D0-722,809361-971026/gosq/11/file/seg.ts' for reading
[https @ 0000022250e2b6c0] Opening 'https://rr5---sn-vgqsknzy.googlevideo.com/videoplayback/id/7f48348f39b49980/itag/234/source/youtube/expire/1766218517/ei/tQZGacf7MNOplu8P2o-CwAw/ip/217.180.221.118/requiressl/yes/ratebypass/yes/pfa/1/goi/133/sgoap/clen%3D2792933%3Bdur%3D172.501%3Bgir%3Dyes%3Bitag%3D140%3Blmt%3D1739113800760800/rqh/1/hls_chunk_host/rr5---sn-vgqsknzy.googlevideo.com/xpc/EgVo2aDSNQ%3D%3D/cps/248/met/1766196917,/mh/ye/mm/31,26/mn/sn-vgqsknzy,sn-aj5ua5-5c/ms/au,onr/mv/m/mvi/5/pl/24/rms/au,au/initcwndbps/1211250/bui/AYUSA3Btm7p0JZASuyna09CafjWWJHNtSZRZkUOktxNiYAPXyRgpFgC_zwKNVorCl-APL44YhywXWYyq/spc/wH4Qq53qyehFjD7tA396rwOac0N7SgHgCrrL7yW0fmJfE0PQEnlcpACn3o3AEIUf/vprv/1/playlist_type/DVR/txp/4532534/mt/1766196543/fvip/2/keepalive/yes/fexp/51552689,51565115,51565681,51580968/sparams/expire,ei,ip,id,itag,source,requiressl,ratebypass,pfa,goi,sgoap,rqh,xpc,bui,spc,vprv,playlist_type/sig/AJfQdSswRAIgdaVXPmzPfNkTyiZ8BP1GiY9w3uKMWlhl-hdtH4CH-d0CICueYL0Ko7T-b60MQsdhaW0if4u4c9TjK4JRZ2Ldedg8/lsparams/hls_chunk_host,cps,met,mh,mm,mn,ms,mv,mvi,pl,rms,initcwndbps/lsig/APaTxxMwRAIgNJa3nRp6m6D4uR9tBDBDE0VI6wsLfa1BCGCKpC5Vi5cCICCQ9Uw4vjxTR4By27Rk80L20_NVoHd4tIocoXY68XLD/playlist/index.m3u8/begin/56111/len/6222/goap/slices%3D0-722,809361-1132396/gosq/12/file/seg.ts' for reading
[https @ 00000222505ee5c0] Opening 'https://rr5---sn-vgqsknzy.googlevideo.com/videoplayback/id/7f48348f39b49980/itag/616/source/youtube/expire/1766218517/ei/tQZGacf7MNOplu8P2o-CwAw/ip/217.180.221.118/requiressl/yes/ratebypass/yes/pfa/1/wft/1/sgovp/clen%3D59056646%3Bdur%3D172.389%3Bgir%3Dyes%3Bitag%3D356%3Blmt%3D1731552233300740/rqh/1/hls_chunk_host/rr5---sn-vgqsknzy.googlevideo.com/xpc/EgVo2aDSNQ%3D%3D/cps/248/met/1766196917,/mh/ye/mm/31,26/mn/sn-vgqsknzy,sn-aj5ua5-5c/ms/au,onr/mv/m/mvi/5/pl/24/rms/au,au/initcwndbps/1211250/bui/AYUSA3Btm7p0JZASuyna09CafjWWJHNtSZRZkUOktxNiYAPXyRgpFgC_zwKNVorCl-APL44YhywXWYyq/spc/wH4Qq53qyehFjD7tA396rwOac0N7SgHgCrrL7yW0fmJfE0PQEnlcpACn3o3AEIUf/vprv/1/playlist_type/DVR/txp/4532434/mt/1766196543/fvip/2/keepalive/yes/fexp/51552689,51565115,51565681,51580968/sparams/expire,ei,ip,id,itag,source,requiressl,ratebypass,pfa,wft,sgovp,rqh,xpc,bui,spc,vprv,playlist_type/sig/AJfQdSswRgIhAJ4mnqRZGnhs5-X8C74EDLxtGi2RjENPaHpC3rGYYKTwAiEAq72ojxBM8x5bn83e5sPXl0J8JcS325ed9rfAmwnXbzc%3D/lsparams/hls_chunk_host,cps,met,mh,mm,mn,ms,mv,mvi,pl,rms,initcwndbps/lsig/APaTxxMwRgIhAJg50DgRpZzjuliKlUhoWk6LUA4b52K96FgPTgWwwPTtAiEAr5IZ07_lw6qJggSv5lvdPTdtR6K0A3cPe6LOBdhGHgw%3D/playlist/index.m3u8/govp/slices%3D0-219,20945079-23797844/gosq/12/file/seg.ts' for reading
[https @ 00000222505cc600] Opening 'https://rr5---sn-vgqsknzy.googlevideo.com/videoplayback/id/7f48348f39b49980/itag/616/source/youtube/expire/1766218517/ei/tQZGacf7MNOplu8P2o-CwAw/ip/217.180.221.118/requiressl/yes/ratebypass/yes/pfa/1/wft/1/sgovp/clen%3D59056646%3Bdur%3D172.389%3Bgir%3Dyes%3Bitag%3D356%3Blmt%3D1731552233300740/rqh/1/hls_chunk_host/rr5---sn-vgqsknzy.googlevideo.com/xpc/EgVo2aDSNQ%3D%3D/cps/248/met/1766196917,/mh/ye/mm/31,26/mn/sn-vgqsknzy,sn-aj5ua5-5c/ms/au,onr/mv/m/mvi/5/pl/24/rms/au,au/initcwndbps/1211250/bui/AYUSA3Btm7p0JZASuyna09CafjWWJHNtSZRZkUOktxNiYAPXyRgpFgC_zwKNVorCl-APL44YhywXWYyq/spc/wH4Qq53qyehFjD7tA396rwOac0N7SgHgCrrL7yW0fmJfE0PQEnlcpACn3o3AEIUf/vprv/1/playlist_type/DVR/txp/4532434/mt/1766196543/fvip/2/keepalive/yes/fexp/51552689,51565115,51565681,51580968/sparams/expire,ei,ip,id,itag,source,requiressl,ratebypass,pfa,wft,sgovp,rqh,xpc,bui,spc,vprv,playlist_type/sig/AJfQdSswRgIhAJ4mnqRZGnhs5-X8C74EDLxtGi2RjENPaHpC3rGYYKTwAiEAq72ojxBM8x5bn83e5sPXl0J8JcS325ed9rfAmwnXbzc%3D/lsparams/hls_chunk_host,cps,met,mh,mm,mn,ms,mv,mvi,pl,rms,initcwndbps/lsig/APaTxxMwRgIhAJg50DgRpZzjuliKlUhoWk6LUA4b52K96FgPTgWwwPTtAiEAr5IZ07_lw6qJggSv5lvdPTdtR6K0A3cPe6LOBdhGHgw%3D/playlist/index.m3u8/govp/slices%3D0-219,23797845-25811599/gosq/13/file/seg.ts' for reading
[https @ 000002225107e840] Opening 'https://rr5---sn-vgqsknzy.googlevideo.com/videoplayback/id/7f48348f39b49980/itag/234/source/youtube/expire/1766218517/ei/tQZGacf7MNOplu8P2o-CwAw/ip/217.180.221.118/requiressl/yes/ratebypass/yes/pfa/1/goi/133/sgoap/clen%3D2792933%3Bdur%3D172.501%3Bgir%3Dyes%3Bitag%3D140%3Blmt%3D1739113800760800/rqh/1/hls_chunk_host/rr5---sn-vgqsknzy.googlevideo.com/xpc/EgVo2aDSNQ%3D%3D/cps/248/met/1766196917,/mh/ye/mm/31,26/mn/sn-vgqsknzy,sn-aj5ua5-5c/ms/au,onr/mv/m/mvi/5/pl/24/rms/au,au/initcwndbps/1211250/bui/AYUSA3Btm7p0JZASuyna09CafjWWJHNtSZRZkUOktxNiYAPXyRgpFgC_zwKNVorCl-APL44YhywXWYyq/spc/wH4Qq53qyehFjD7tA396rwOac0N7SgHgCrrL7yW0fmJfE0PQEnlcpACn3o3AEIUf/vprv/1/playlist_type/DVR/txp/4532534/mt/1766196543/fvip/2/keepalive/yes/fexp/51552689,51565115,51565681,51580968/sparams/expire,ei,ip,id,itag,source,requiressl,ratebypass,pfa,goi,sgoap,rqh,xpc,bui,spc,vprv,playlist_type/sig/AJfQdSswRAIgdaVXPmzPfNkTyiZ8BP1GiY9w3uKMWlhl-hdtH4CH-d0CICueYL0Ko7T-b60MQsdhaW0if4u4c9TjK4JRZ2Ldedg8/lsparams/hls_chunk_host,cps,met,mh,mm,mn,ms,mv,mvi,pl,rms,initcwndbps/lsig/APaTxxMwRAIgNJa3nRp6m6D4uR9tBDBDE0VI6wsLfa1BCGCKpC5Vi5cCICCQ9Uw4vjxTR4By27Rk80L20_NVoHd4tIocoXY68XLD/playlist/index.m3u8/begin/62333/len/5445/goap/slices%3D0-722,971027-1132396/gosq/13/file/seg.ts' for reading
[https @ 0000022250e2b6c0] Opening 'https://rr5---sn-vgqsknzy.googlevideo.com/videoplayback/id/7f48348f39b49980/itag/234/source/youtube/expire/1766218517/ei/tQZGacf7MNOplu8P2o-CwAw/ip/217.180.221.118/requiressl/yes/ratebypass/yes/pfa/1/goi/133/sgoap/clen%3D2792933%3Bdur%3D172.501%3Bgir%3Dyes%3Bitag%3D140%3Blmt%3D1739113800760800/rqh/1/hls_chunk_host/rr5---sn-vgqsknzy.googlevideo.com/xpc/EgVo2aDSNQ%3D%3D/cps/248/met/1766196917,/mh/ye/mm/31,26/mn/sn-vgqsknzy,sn-aj5ua5-5c/ms/au,onr/mv/m/mvi/5/pl/24/rms/au,au/initcwndbps/1211250/bui/AYUSA3Btm7p0JZASuyna09CafjWWJHNtSZRZkUOktxNiYAPXyRgpFgC_zwKNVorCl-APL44YhywXWYyq/spc/wH4Qq53qyehFjD7tA396rwOac0N7SgHgCrrL7yW0fmJfE0PQEnlcpACn3o3AEIUf/vprv/1/playlist_type/DVR/txp/4532534/mt/1766196543/fvip/2/keepalive/yes/fexp/51552689,51565115,51565681,51580968/sparams/expire,ei,ip,id,itag,source,requiressl,ratebypass,pfa,goi,sgoap,rqh,xpc,bui,spc,vprv,playlist_type/sig/AJfQdSswRAIgdaVXPmzPfNkTyiZ8BP1GiY9w3uKMWlhl-hdtH4CH-d0CICueYL0Ko7T-b60MQsdhaW0if4u4c9TjK4JRZ2Ldedg8/lsparams/hls_chunk_host,cps,met,mh,mm,mn,ms,mv,mvi,pl,rms,initcwndbps/lsig/APaTxxMwRAIgNJa3nRp6m6D4uR9tBDBDE0VI6wsLfa1BCGCKpC5Vi5cCICCQ9Uw4vjxTR4By27Rk80L20_NVoHd4tIocoXY68XLD/playlist/index.m3u8/begin/67778/len/4111/goap/slices%3D0-722,971027-1293936/gosq/14/file/seg.ts' for reading
[https @ 00000222505ee5c0] Opening 'https://rr5---sn-vgqsknzy.googlevideo.com/videoplayback/id/7f48348f39b49980/itag/616/source/youtube/expire/1766218517/ei/tQZGacf7MNOplu8P2o-CwAw/ip/217.180.221.118/requiressl/yes/ratebypass/yes/pfa/1/wft/1/sgovp/clen%3D59056646%3Bdur%3D172.389%3Bgir%3Dyes%3Bitag%3D356%3Blmt%3D1731552233300740/rqh/1/hls_chunk_host/rr5---sn-vgqsknzy.googlevideo.com/xpc/EgVo2aDSNQ%3D%3D/cps/248/met/1766196917,/mh/ye/mm/31,26/mn/sn-vgqsknzy,sn-aj5ua5-5c/ms/au,onr/mv/m/mvi/5/pl/24/rms/au,au/initcwndbps/1211250/bui/AYUSA3Btm7p0JZASuyna09CafjWWJHNtSZRZkUOktxNiYAPXyRgpFgC_zwKNVorCl-APL44YhywXWYyq/spc/wH4Qq53qyehFjD7tA396rwOac0N7SgHgCrrL7yW0fmJfE0PQEnlcpACn3o3AEIUf/vprv/1/playlist_type/DVR/txp/4532434/mt/1766196543/fvip/2/keepalive/yes/fexp/51552689,51565115,51565681,51580968/sparams/expire,ei,ip,id,itag,source,requiressl,ratebypass,pfa,wft,sgovp,rqh,xpc,bui,spc,vprv,playlist_type/sig/AJfQdSswRgIhAJ4mnqRZGnhs5-X8C74EDLxtGi2RjENPaHpC3rGYYKTwAiEAq72ojxBM8x5bn83e5sPXl0J8JcS325ed9rfAmwnXbzc%3D/lsparams/hls_chunk_host,cps,met,mh,mm,mn,ms,mv,mvi,pl,rms,initcwndbps/lsig/APaTxxMwRgIhAJg50DgRpZzjuliKlUhoWk6LUA4b52K96FgPTgWwwPTtAiEAr5IZ07_lw6qJggSv5lvdPTdtR6K0A3cPe6LOBdhGHgw%3D/playlist/index.m3u8/govp/slices%3D0-219,25811600-26888924/gosq/14/file/seg.ts' for reading
frame= 1122 fps=731 q=-1.0 size=   24064KiB time=00:01:02.33 bitrate=3162.6kbits/s speed=40.6x
[https @ 000002225107e840] Opening 'https://rr5---sn-vgqsknzy.googlevideo.com/videoplayback/id/7f48348f39b49980/itag/234/source/youtube/expire/1766218517/ei/tQZGacf7MNOplu8P2o-CwAw/ip/217.180.221.118/requiressl/yes/ratebypass/yes/pfa/1/goi/133/sgoap/clen%3D2792933%3Bdur%3D172.501%3Bgir%3Dyes%3Bitag%3D140%3Blmt%3D1739113800760800/rqh/1/hls_chunk_host/rr5---sn-vgqsknzy.googlevideo.com/xpc/EgVo2aDSNQ%3D%3D/cps/248/met/1766196917,/mh/ye/mm/31,26/mn/sn-vgqsknzy,sn-aj5ua5-5c/ms/au,onr/mv/m/mvi/5/pl/24/rms/au,au/initcwndbps/1211250/bui/AYUSA3Btm7p0JZASuyna09CafjWWJHNtSZRZkUOktxNiYAPXyRgpFgC_zwKNVorCl-APL44YhywXWYyq/spc/wH4Qq53qyehFjD7tA396rwOac0N7SgHgCrrL7yW0fmJfE0PQEnlcpACn3o3AEIUf/vprv/1/playlist_type/DVR/txp/4532534/mt/1766196543/fvip/2/keepalive/yes/fexp/51552689,51565115,51565681,51580968/sparams/expire,ei,ip,id,itag,source,requiressl,ratebypass,pfa,goi,sgoap,rqh,xpc,bui,spc,vprv,playlist_type/sig/AJfQdSswRAIgdaVXPmzPfNkTyiZ8BP1GiY9w3uKMWlhl-hdtH4CH-d0CICueYL0Ko7T-b60MQsdhaW0if4u4c9TjK4JRZ2Ldedg8/lsparams/hls_chunk_host,cps,met,mh,mm,mn,ms,mv,mvi,pl,rms,initcwndbps/lsig/APaTxxMwRAIgNJa3nRp6m6D4uR9tBDBDE0VI6wsLfa1BCGCKpC5Vi5cCICCQ9Uw4vjxTR4By27Rk80L20_NVoHd4tIocoXY68XLD/playlist/index.m3u8/begin/71889/len/3833/goap/slices%3D0-722,1132397-1293936/gosq/15/file/seg.ts' for reading
[https @ 00000222505cc600] Opening 'https://rr5---sn-vgqsknzy.googlevideo.com/videoplayback/id/7f48348f39b49980/itag/616/source/youtube/expire/1766218517/ei/tQZGacf7MNOplu8P2o-CwAw/ip/217.180.221.118/requiressl/yes/ratebypass/yes/pfa/1/wft/1/sgovp/clen%3D59056646%3Bdur%3D172.389%3Bgir%3Dyes%3Bitag%3D356%3Blmt%3D1731552233300740/rqh/1/hls_chunk_host/rr5---sn-vgqsknzy.googlevideo.com/xpc/EgVo2aDSNQ%3D%3D/cps/248/met/1766196917,/mh/ye/mm/31,26/mn/sn-vgqsknzy,sn-aj5ua5-5c/ms/au,onr/mv/m/mvi/5/pl/24/rms/au,au/initcwndbps/1211250/bui/AYUSA3Btm7p0JZASuyna09CafjWWJHNtSZRZkUOktxNiYAPXyRgpFgC_zwKNVorCl-APL44YhywXWYyq/spc/wH4Qq53qyehFjD7tA396rwOac0N7SgHgCrrL7yW0fmJfE0PQEnlcpACn3o3AEIUf/vprv/1/playlist_type/DVR/txp/4532434/mt/1766196543/fvip/2/keepalive/yes/fexp/51552689,51565115,51565681,51580968/sparams/expire,ei,ip,id,itag,source,requiressl,ratebypass,pfa,wft,sgovp,rqh,xpc,bui,spc,vprv,playlist_type/sig/AJfQdSswRgIhAJ4mnqRZGnhs5-X8C74EDLxtGi2RjENPaHpC3rGYYKTwAiEAq72ojxBM8x5bn83e5sPXl0J8JcS325ed9rfAmwnXbzc%3D/lsparams/hls_chunk_host,cps,met,mh,mm,mn,ms,mv,mvi,pl,rms,initcwndbps/lsig/APaTxxMwRgIhAJg50DgRpZzjuliKlUhoWk6LUA4b52K96FgPTgWwwPTtAiEAr5IZ07_lw6qJggSv5lvdPTdtR6K0A3cPe6LOBdhGHgw%3D/playlist/index.m3u8/govp/slices%3D0-219,26888925-28193355/gosq/15/file/seg.ts' for reading
[https @ 00000222505ee5c0] Opening 'https://rr5---sn-vgqsknzy.googlevideo.com/videoplayback/id/7f48348f39b49980/itag/616/source/youtube/expire/1766218517/ei/tQZGacf7MNOplu8P2o-CwAw/ip/217.180.221.118/requiressl/yes/ratebypass/yes/pfa/1/wft/1/sgovp/clen%3D59056646%3Bdur%3D172.389%3Bgir%3Dyes%3Bitag%3D356%3Blmt%3D1731552233300740/rqh/1/hls_chunk_host/rr5---sn-vgqsknzy.googlevideo.com/xpc/EgVo2aDSNQ%3D%3D/cps/248/met/1766196917,/mh/ye/mm/31,26/mn/sn-vgqsknzy,sn-aj5ua5-5c/ms/au,onr/mv/m/mvi/5/pl/24/rms/au,au/initcwndbps/1211250/bui/AYUSA3Btm7p0JZASuyna09CafjWWJHNtSZRZkUOktxNiYAPXyRgpFgC_zwKNVorCl-APL44YhywXWYyq/spc/wH4Qq53qyehFjD7tA396rwOac0N7SgHgCrrL7yW0fmJfE0PQEnlcpACn3o3AEIUf/vprv/1/playlist_type/DVR/txp/4532434/mt/1766196543/fvip/2/keepalive/yes/fexp/51552689,51565115,51565681,51580968/sparams/expire,ei,ip,id,itag,source,requiressl,ratebypass,pfa,wft,sgovp,rqh,xpc,bui,spc,vprv,playlist_type/sig/AJfQdSswRgIhAJ4mnqRZGnhs5-X8C74EDLxtGi2RjENPaHpC3rGYYKTwAiEAq72ojxBM8x5bn83e5sPXl0J8JcS325ed9rfAmwnXbzc%3D/lsparams/hls_chunk_host,cps,met,mh,mm,mn,ms,mv,mvi,pl,rms,initcwndbps/lsig/APaTxxMwRgIhAJg50DgRpZzjuliKlUhoWk6LUA4b52K96FgPTgWwwPTtAiEAr5IZ07_lw6qJggSv5lvdPTdtR6K0A3cPe6LOBdhGHgw%3D/playlist/index.m3u8/govp/slices%3D0-219,28193356-30068520/gosq/16/file/seg.ts' for reading
[https @ 0000022250e2b6c0] Opening 'https://rr5---sn-vgqsknzy.googlevideo.com/videoplayback/id/7f48348f39b49980/itag/234/source/youtube/expire/1766218517/ei/tQZGacf7MNOplu8P2o-CwAw/ip/217.180.221.118/requiressl/yes/ratebypass/yes/pfa/1/goi/133/sgoap/clen%3D2792933%3Bdur%3D172.501%3Bgir%3Dyes%3Bitag%3D140%3Blmt%3D1739113800760800/rqh/1/hls_chunk_host/rr5---sn-vgqsknzy.googlevideo.com/xpc/EgVo2aDSNQ%3D%3D/cps/248/met/1766196917,/mh/ye/mm/31,26/mn/sn-vgqsknzy,sn-aj5ua5-5c/ms/au,onr/mv/m/mvi/5/pl/24/rms/au,au/initcwndbps/1211250/bui/AYUSA3Btm7p0JZASuyna09CafjWWJHNtSZRZkUOktxNiYAPXyRgpFgC_zwKNVorCl-APL44YhywXWYyq/spc/wH4Qq53qyehFjD7tA396rwOac0N7SgHgCrrL7yW0fmJfE0PQEnlcpACn3o3AEIUf/vprv/1/playlist_type/DVR/txp/4532534/mt/1766196543/fvip/2/keepalive/yes/fexp/51552689,51565115,51565681,51580968/sparams/expire,ei,ip,id,itag,source,requiressl,ratebypass,pfa,goi,sgoap,rqh,xpc,bui,spc,vprv,playlist_type/sig/AJfQdSswRAIgdaVXPmzPfNkTyiZ8BP1GiY9w3uKMWlhl-hdtH4CH-d0CICueYL0Ko7T-b60MQsdhaW0if4u4c9TjK4JRZ2Ldedg8/lsparams/hls_chunk_host,cps,met,mh,mm,mn,ms,mv,mvi,pl,rms,initcwndbps/lsig/APaTxxMwRAIgNJa3nRp6m6D4uR9tBDBDE0VI6wsLfa1BCGCKpC5Vi5cCICCQ9Uw4vjxTR4By27Rk80L20_NVoHd4tIocoXY68XLD/playlist/index.m3u8/begin/75722/len/4389/goap/slices%3D0-722,1132397-1455447/gosq/16/file/seg.ts' for reading
[https @ 00000222505cc600] Opening 'https://rr5---sn-vgqsknzy.googlevideo.com/videoplayback/id/7f48348f39b49980/itag/616/source/youtube/expire/1766218517/ei/tQZGacf7MNOplu8P2o-CwAw/ip/217.180.221.118/requiressl/yes/ratebypass/yes/pfa/1/wft/1/sgovp/clen%3D59056646%3Bdur%3D172.389%3Bgir%3Dyes%3Bitag%3D356%3Blmt%3D1731552233300740/rqh/1/hls_chunk_host/rr5---sn-vgqsknzy.googlevideo.com/xpc/EgVo2aDSNQ%3D%3D/cps/248/met/1766196917,/mh/ye/mm/31,26/mn/sn-vgqsknzy,sn-aj5ua5-5c/ms/au,onr/mv/m/mvi/5/pl/24/rms/au,au/initcwndbps/1211250/bui/AYUSA3Btm7p0JZASuyna09CafjWWJHNtSZRZkUOktxNiYAPXyRgpFgC_zwKNVorCl-APL44YhywXWYyq/spc/wH4Qq53qyehFjD7tA396rwOac0N7SgHgCrrL7yW0fmJfE0PQEnlcpACn3o3AEIUf/vprv/1/playlist_type/DVR/txp/4532434/mt/1766196543/fvip/2/keepalive/yes/fexp/51552689,51565115,51565681,51580968/sparams/expire,ei,ip,id,itag,source,requiressl,ratebypass,pfa,wft,sgovp,rqh,xpc,bui,spc,vprv,playlist_type/sig/AJfQdSswRgIhAJ4mnqRZGnhs5-X8C74EDLxtGi2RjENPaHpC3rGYYKTwAiEAq72ojxBM8x5bn83e5sPXl0J8JcS325ed9rfAmwnXbzc%3D/lsparams/hls_chunk_host,cps,met,mh,mm,mn,ms,mv,mvi,pl,rms,initcwndbps/lsig/APaTxxMwRgIhAJg50DgRpZzjuliKlUhoWk6LUA4b52K96FgPTgWwwPTtAiEAr5IZ07_lw6qJggSv5lvdPTdtR6K0A3cPe6LOBdhGHgw%3D/playlist/index.m3u8/govp/slices%3D0-219,30068521-32109765/gosq/17/file/seg.ts' for reading
[https @ 000002225107e840] Opening 'https://rr5---sn-vgqsknzy.googlevideo.com/videoplayback/id/7f48348f39b49980/itag/234/source/youtube/expire/1766218517/ei/tQZGacf7MNOplu8P2o-CwAw/ip/217.180.221.118/requiressl/yes/ratebypass/yes/pfa/1/goi/133/sgoap/clen%3D2792933%3Bdur%3D172.501%3Bgir%3Dyes%3Bitag%3D140%3Blmt%3D1739113800760800/rqh/1/hls_chunk_host/rr5---sn-vgqsknzy.googlevideo.com/xpc/EgVo2aDSNQ%3D%3D/cps/248/met/1766196917,/mh/ye/mm/31,26/mn/sn-vgqsknzy,sn-aj5ua5-5c/ms/au,onr/mv/m/mvi/5/pl/24/rms/au,au/initcwndbps/1211250/bui/AYUSA3Btm7p0JZASuyna09CafjWWJHNtSZRZkUOktxNiYAPXyRgpFgC_zwKNVorCl-APL44YhywXWYyq/spc/wH4Qq53qyehFjD7tA396rwOac0N7SgHgCrrL7yW0fmJfE0PQEnlcpACn3o3AEIUf/vprv/1/playlist_type/DVR/txp/4532534/mt/1766196543/fvip/2/keepalive/yes/fexp/51552689,51565115,51565681,51580968/sparams/expire,ei,ip,id,itag,source,requiressl,ratebypass,pfa,goi,sgoap,rqh,xpc,bui,spc,vprv,playlist_type/sig/AJfQdSswRAIgdaVXPmzPfNkTyiZ8BP1GiY9w3uKMWlhl-hdtH4CH-d0CICueYL0Ko7T-b60MQsdhaW0if4u4c9TjK4JRZ2Ldedg8/lsparams/hls_chunk_host,cps,met,mh,mm,mn,ms,mv,mvi,pl,rms,initcwndbps/lsig/APaTxxMwRAIgNJa3nRp6m6D4uR9tBDBDE0VI6wsLfa1BCGCKpC5Vi5cCICCQ9Uw4vjxTR4By27Rk80L20_NVoHd4tIocoXY68XLD/playlist/index.m3u8/begin/80111/len/5167/goap/slices%3D0-722,1293937-1455447/gosq/17/file/seg.ts' for reading
[https @ 0000022250e2b6c0] Opening 'https://rr5---sn-vgqsknzy.googlevideo.com/videoplayback/id/7f48348f39b49980/itag/234/source/youtube/expire/1766218517/ei/tQZGacf7MNOplu8P2o-CwAw/ip/217.180.221.118/requiressl/yes/ratebypass/yes/pfa/1/goi/133/sgoap/clen%3D2792933%3Bdur%3D172.501%3Bgir%3Dyes%3Bitag%3D140%3Blmt%3D1739113800760800/rqh/1/hls_chunk_host/rr5---sn-vgqsknzy.googlevideo.com/xpc/EgVo2aDSNQ%3D%3D/cps/248/met/1766196917,/mh/ye/mm/31,26/mn/sn-vgqsknzy,sn-aj5ua5-5c/ms/au,onr/mv/m/mvi/5/pl/24/rms/au,au/initcwndbps/1211250/bui/AYUSA3Btm7p0JZASuyna09CafjWWJHNtSZRZkUOktxNiYAPXyRgpFgC_zwKNVorCl-APL44YhywXWYyq/spc/wH4Qq53qyehFjD7tA396rwOac0N7SgHgCrrL7yW0fmJfE0PQEnlcpACn3o3AEIUf/vprv/1/playlist_type/DVR/txp/4532534/mt/1766196543/fvip/2/keepalive/yes/fexp/51552689,51565115,51565681,51580968/sparams/expire,ei,ip,id,itag,source,requiressl,ratebypass,pfa,goi,sgoap,rqh,xpc,bui,spc,vprv,playlist_type/sig/AJfQdSswRAIgdaVXPmzPfNkTyiZ8BP1GiY9w3uKMWlhl-hdtH4CH-d0CICueYL0Ko7T-b60MQsdhaW0if4u4c9TjK4JRZ2Ldedg8/lsparams/hls_chunk_host,cps,met,mh,mm,mn,ms,mv,mvi,pl,rms,initcwndbps/lsig/APaTxxMwRAIgNJa3nRp6m6D4uR9tBDBDE0VI6wsLfa1BCGCKpC5Vi5cCICCQ9Uw4vjxTR4By27Rk80L20_NVoHd4tIocoXY68XLD/playlist/index.m3u8/begin/85278/len/6166/goap/slices%3D0-722,1293937-1617035/gosq/18/file/seg.ts' for reading
[https @ 00000222505ee5c0] Opening 'https://rr5---sn-vgqsknzy.googlevideo.com/videoplayback/id/7f48348f39b49980/itag/616/source/youtube/expire/1766218517/ei/tQZGacf7MNOplu8P2o-CwAw/ip/217.180.221.118/requiressl/yes/ratebypass/yes/pfa/1/wft/1/sgovp/clen%3D59056646%3Bdur%3D172.389%3Bgir%3Dyes%3Bitag%3D356%3Blmt%3D1731552233300740/rqh/1/hls_chunk_host/rr5---sn-vgqsknzy.googlevideo.com/xpc/EgVo2aDSNQ%3D%3D/cps/248/met/1766196917,/mh/ye/mm/31,26/mn/sn-vgqsknzy,sn-aj5ua5-5c/ms/au,onr/mv/m/mvi/5/pl/24/rms/au,au/initcwndbps/1211250/bui/AYUSA3Btm7p0JZASuyna09CafjWWJHNtSZRZkUOktxNiYAPXyRgpFgC_zwKNVorCl-APL44YhywXWYyq/spc/wH4Qq53qyehFjD7tA396rwOac0N7SgHgCrrL7yW0fmJfE0PQEnlcpACn3o3AEIUf/vprv/1/playlist_type/DVR/txp/4532434/mt/1766196543/fvip/2/keepalive/yes/fexp/51552689,51565115,51565681,51580968/sparams/expire,ei,ip,id,itag,source,requiressl,ratebypass,pfa,wft,sgovp,rqh,xpc,bui,spc,vprv,playlist_type/sig/AJfQdSswRgIhAJ4mnqRZGnhs5-X8C74EDLxtGi2RjENPaHpC3rGYYKTwAiEAq72ojxBM8x5bn83e5sPXl0J8JcS325ed9rfAmwnXbzc%3D/lsparams/hls_chunk_host,cps,met,mh,mm,mn,ms,mv,mvi,pl,rms,initcwndbps/lsig/APaTxxMwRgIhAJg50DgRpZzjuliKlUhoWk6LUA4b52K96FgPTgWwwPTtAiEAr5IZ07_lw6qJggSv5lvdPTdtR6K0A3cPe6LOBdhGHgw%3D/playlist/index.m3u8/govp/slices%3D0-219,32109766-34541021/gosq/18/file/seg.ts' for reading
[https @ 000002225107e840] Opening 'https://rr5---sn-vgqsknzy.googlevideo.com/videoplayback/id/7f48348f39b49980/itag/234/source/youtube/expire/1766218517/ei/tQZGacf7MNOplu8P2o-CwAw/ip/217.180.221.118/requiressl/yes/ratebypass/yes/pfa/1/goi/133/sgoap/clen%3D2792933%3Bdur%3D172.501%3Bgir%3Dyes%3Bitag%3D140%3Blmt%3D1739113800760800/rqh/1/hls_chunk_host/rr5---sn-vgqsknzy.googlevideo.com/xpc/EgVo2aDSNQ%3D%3D/cps/248/met/1766196917,/mh/ye/mm/31,26/mn/sn-vgqsknzy,sn-aj5ua5-5c/ms/au,onr/mv/m/mvi/5/pl/24/rms/au,au/initcwndbps/1211250/bui/AYUSA3Btm7p0JZASuyna09CafjWWJHNtSZRZkUOktxNiYAPXyRgpFgC_zwKNVorCl-APL44YhywXWYyq/spc/wH4Qq53qyehFjD7tA396rwOac0N7SgHgCrrL7yW0fmJfE0PQEnlcpACn3o3AEIUf/vprv/1/playlist_type/DVR/txp/4532534/mt/1766196543/fvip/2/keepalive/yes/fexp/51552689,51565115,51565681,51580968/sparams/expire,ei,ip,id,itag,source,requiressl,ratebypass,pfa,goi,sgoap,rqh,xpc,bui,spc,vprv,playlist_type/sig/AJfQdSswRAIgdaVXPmzPfNkTyiZ8BP1GiY9w3uKMWlhl-hdtH4CH-d0CICueYL0Ko7T-b60MQsdhaW0if4u4c9TjK4JRZ2Ldedg8/lsparams/hls_chunk_host,cps,met,mh,mm,mn,ms,mv,mvi,pl,rms,initcwndbps/lsig/APaTxxMwRAIgNJa3nRp6m6D4uR9tBDBDE0VI6wsLfa1BCGCKpC5Vi5cCICCQ9Uw4vjxTR4By27Rk80L20_NVoHd4tIocoXY68XLD/playlist/index.m3u8/begin/91444/len/7000/goap/slices%3D0-722,1455448-1617035/gosq/19/file/seg.ts' for reading
[https @ 00000222505cc600] Opening 'https://rr5---sn-vgqsknzy.googlevideo.com/videoplayback/id/7f48348f39b49980/itag/616/source/youtube/expire/1766218517/ei/tQZGacf7MNOplu8P2o-CwAw/ip/217.180.221.118/requiressl/yes/ratebypass/yes/pfa/1/wft/1/sgovp/clen%3D59056646%3Bdur%3D172.389%3Bgir%3Dyes%3Bitag%3D356%3Blmt%3D1731552233300740/rqh/1/hls_chunk_host/rr5---sn-vgqsknzy.googlevideo.com/xpc/EgVo2aDSNQ%3D%3D/cps/248/met/1766196917,/mh/ye/mm/31,26/mn/sn-vgqsknzy,sn-aj5ua5-5c/ms/au,onr/mv/m/mvi/5/pl/24/rms/au,au/initcwndbps/1211250/bui/AYUSA3Btm7p0JZASuyna09CafjWWJHNtSZRZkUOktxNiYAPXyRgpFgC_zwKNVorCl-APL44YhywXWYyq/spc/wH4Qq53qyehFjD7tA396rwOac0N7SgHgCrrL7yW0fmJfE0PQEnlcpACn3o3AEIUf/vprv/1/playlist_type/DVR/txp/4532434/mt/1766196543/fvip/2/keepalive/yes/fexp/51552689,51565115,51565681,51580968/sparams/expire,ei,ip,id,itag,source,requiressl,ratebypass,pfa,wft,sgovp,rqh,xpc,bui,spc,vprv,playlist_type/sig/AJfQdSswRgIhAJ4mnqRZGnhs5-X8C74EDLxtGi2RjENPaHpC3rGYYKTwAiEAq72ojxBM8x5bn83e5sPXl0J8JcS325ed9rfAmwnXbzc%3D/lsparams/hls_chunk_host,cps,met,mh,mm,mn,ms,mv,mvi,pl,rms,initcwndbps/lsig/APaTxxMwRgIhAJg50DgRpZzjuliKlUhoWk6LUA4b52K96FgPTgWwwPTtAiEAr5IZ07_lw6qJggSv5lvdPTdtR6K0A3cPe6LOBdhGHgw%3D/playlist/index.m3u8/govp/slices%3D0-219,34541022-37526241/gosq/19/file/seg.ts' for reading
[https @ 00000222505ee5c0] Opening 'https://rr5---sn-vgqsknzy.googlevideo.com/videoplayback/id/7f48348f39b49980/itag/616/source/youtube/expire/1766218517/ei/tQZGacf7MNOplu8P2o-CwAw/ip/217.180.221.118/requiressl/yes/ratebypass/yes/pfa/1/wft/1/sgovp/clen%3D59056646%3Bdur%3D172.389%3Bgir%3Dyes%3Bitag%3D356%3Blmt%3D1731552233300740/rqh/1/hls_chunk_host/rr5---sn-vgqsknzy.googlevideo.com/xpc/EgVo2aDSNQ%3D%3D/cps/248/met/1766196917,/mh/ye/mm/31,26/mn/sn-vgqsknzy,sn-aj5ua5-5c/ms/au,onr/mv/m/mvi/5/pl/24/rms/au,au/initcwndbps/1211250/bui/AYUSA3Btm7p0JZASuyna09CafjWWJHNtSZRZkUOktxNiYAPXyRgpFgC_zwKNVorCl-APL44YhywXWYyq/spc/wH4Qq53qyehFjD7tA396rwOac0N7SgHgCrrL7yW0fmJfE0PQEnlcpACn3o3AEIUf/vprv/1/playlist_type/DVR/txp/4532434/mt/1766196543/fvip/2/keepalive/yes/fexp/51552689,51565115,51565681,51580968/sparams/expire,ei,ip,id,itag,source,requiressl,ratebypass,pfa,wft,sgovp,rqh,xpc,bui,spc,vprv,playlist_type/sig/AJfQdSswRgIhAJ4mnqRZGnhs5-X8C74EDLxtGi2RjENPaHpC3rGYYKTwAiEAq72ojxBM8x5bn83e5sPXl0J8JcS325ed9rfAmwnXbzc%3D/lsparams/hls_chunk_host,cps,met,mh,mm,mn,ms,mv,mvi,pl,rms,initcwndbps/lsig/APaTxxMwRgIhAJg50DgRpZzjuliKlUhoWk6LUA4b52K96FgPTgWwwPTtAiEAr5IZ07_lw6qJggSv5lvdPTdtR6K0A3cPe6LOBdhGHgw%3D/playlist/index.m3u8/govp/slices%3D0-219,37526242-40069225/gosq/20/file/seg.ts' for reading
[https @ 0000022250e2b6c0] Opening 'https://rr5---sn-vgqsknzy.googlevideo.com/videoplayback/id/7f48348f39b49980/itag/234/source/youtube/expire/1766218517/ei/tQZGacf7MNOplu8P2o-CwAw/ip/217.180.221.118/requiressl/yes/ratebypass/yes/pfa/1/goi/133/sgoap/clen%3D2792933%3Bdur%3D172.501%3Bgir%3Dyes%3Bitag%3D140%3Blmt%3D1739113800760800/rqh/1/hls_chunk_host/rr5---sn-vgqsknzy.googlevideo.com/xpc/EgVo2aDSNQ%3D%3D/cps/248/met/1766196917,/mh/ye/mm/31,26/mn/sn-vgqsknzy,sn-aj5ua5-5c/ms/au,onr/mv/m/mvi/5/pl/24/rms/au,au/initcwndbps/1211250/bui/AYUSA3Btm7p0JZASuyna09CafjWWJHNtSZRZkUOktxNiYAPXyRgpFgC_zwKNVorCl-APL44YhywXWYyq/spc/wH4Qq53qyehFjD7tA396rwOac0N7SgHgCrrL7yW0fmJfE0PQEnlcpACn3o3AEIUf/vprv/1/playlist_type/DVR/txp/4532534/mt/1766196543/fvip/2/keepalive/yes/fexp/51552689,51565115,51565681,51580968/sparams/expire,ei,ip,id,itag,source,requiressl,ratebypass,pfa,goi,sgoap,rqh,xpc,bui,spc,vprv,playlist_type/sig/AJfQdSswRAIgdaVXPmzPfNkTyiZ8BP1GiY9w3uKMWlhl-hdtH4CH-d0CICueYL0Ko7T-b60MQsdhaW0if4u4c9TjK4JRZ2Ldedg8/lsparams/hls_chunk_host,cps,met,mh,mm,mn,ms,mv,mvi,pl,rms,initcwndbps/lsig/APaTxxMwRAIgNJa3nRp6m6D4uR9tBDBDE0VI6wsLfa1BCGCKpC5Vi5cCICCQ9Uw4vjxTR4By27Rk80L20_NVoHd4tIocoXY68XLD/playlist/index.m3u8/begin/98444/len/6000/goap/slices%3D0-722,1455448-1778621/gosq/20/file/seg.ts' for reading
[https @ 000002225107e840] Opening 'https://rr5---sn-vgqsknzy.googlevideo.com/videoplayback/id/7f48348f39b49980/itag/234/source/youtube/expire/1766218517/ei/tQZGacf7MNOplu8P2o-CwAw/ip/217.180.221.118/requiressl/yes/ratebypass/yes/pfa/1/goi/133/sgoap/clen%3D2792933%3Bdur%3D172.501%3Bgir%3Dyes%3Bitag%3D140%3Blmt%3D1739113800760800/rqh/1/hls_chunk_host/rr5---sn-vgqsknzy.googlevideo.com/xpc/EgVo2aDSNQ%3D%3D/cps/248/met/1766196917,/mh/ye/mm/31,26/mn/sn-vgqsknzy,sn-aj5ua5-5c/ms/au,onr/mv/m/mvi/5/pl/24/rms/au,au/initcwndbps/1211250/bui/AYUSA3Btm7p0JZASuyna09CafjWWJHNtSZRZkUOktxNiYAPXyRgpFgC_zwKNVorCl-APL44YhywXWYyq/spc/wH4Qq53qyehFjD7tA396rwOac0N7SgHgCrrL7yW0fmJfE0PQEnlcpACn3o3AEIUf/vprv/1/playlist_type/DVR/txp/4532534/mt/1766196543/fvip/2/keepalive/yes/fexp/51552689,51565115,51565681,51580968/sparams/expire,ei,ip,id,itag,source,requiressl,ratebypass,pfa,goi,sgoap,rqh,xpc,bui,spc,vprv,playlist_type/sig/AJfQdSswRAIgdaVXPmzPfNkTyiZ8BP1GiY9w3uKMWlhl-hdtH4CH-d0CICueYL0Ko7T-b60MQsdhaW0if4u4c9TjK4JRZ2Ldedg8/lsparams/hls_chunk_host,cps,met,mh,mm,mn,ms,mv,mvi,pl,rms,initcwndbps/lsig/APaTxxMwRAIgNJa3nRp6m6D4uR9tBDBDE0VI6wsLfa1BCGCKpC5Vi5cCICCQ9Uw4vjxTR4By27Rk80L20_NVoHd4tIocoXY68XLD/playlist/index.m3u8/begin/104444/len/4667/goap/slices%3D0-722,1617036-1778621/gosq/21/file/seg.ts' for reading
[https @ 00000222505cc600] Opening 'https://rr5---sn-vgqsknzy.googlevideo.com/videoplayback/id/7f48348f39b49980/itag/616/source/youtube/expire/1766218517/ei/tQZGacf7MNOplu8P2o-CwAw/ip/217.180.221.118/requiressl/yes/ratebypass/yes/pfa/1/wft/1/sgovp/clen%3D59056646%3Bdur%3D172.389%3Bgir%3Dyes%3Bitag%3D356%3Blmt%3D1731552233300740/rqh/1/hls_chunk_host/rr5---sn-vgqsknzy.googlevideo.com/xpc/EgVo2aDSNQ%3D%3D/cps/248/met/1766196917,/mh/ye/mm/31,26/mn/sn-vgqsknzy,sn-aj5ua5-5c/ms/au,onr/mv/m/mvi/5/pl/24/rms/au,au/initcwndbps/1211250/bui/AYUSA3Btm7p0JZASuyna09CafjWWJHNtSZRZkUOktxNiYAPXyRgpFgC_zwKNVorCl-APL44YhywXWYyq/spc/wH4Qq53qyehFjD7tA396rwOac0N7SgHgCrrL7yW0fmJfE0PQEnlcpACn3o3AEIUf/vprv/1/playlist_type/DVR/txp/4532434/mt/1766196543/fvip/2/keepalive/yes/fexp/51552689,51565115,51565681,51580968/sparams/expire,ei,ip,id,itag,source,requiressl,ratebypass,pfa,wft,sgovp,rqh,xpc,bui,spc,vprv,playlist_type/sig/AJfQdSswRgIhAJ4mnqRZGnhs5-X8C74EDLxtGi2RjENPaHpC3rGYYKTwAiEAq72ojxBM8x5bn83e5sPXl0J8JcS325ed9rfAmwnXbzc%3D/lsparams/hls_chunk_host,cps,met,mh,mm,mn,ms,mv,mvi,pl,rms,initcwndbps/lsig/APaTxxMwRgIhAJg50DgRpZzjuliKlUhoWk6LUA4b52K96FgPTgWwwPTtAiEAr5IZ07_lw6qJggSv5lvdPTdtR6K0A3cPe6LOBdhGHgw%3D/playlist/index.m3u8/govp/slices%3D0-219,40069226-42005418/gosq/21/file/seg.ts' for reading
frame= 1772 fps=864 q=-1.0 size=   38144KiB time=00:01:38.44 bitrate=3174.2kbits/s speed=  48x
[https @ 0000022250e2b6c0] Opening 'https://rr5---sn-vgqsknzy.googlevideo.com/videoplayback/id/7f48348f39b49980/itag/234/source/youtube/expire/1766218517/ei/tQZGacf7MNOplu8P2o-CwAw/ip/217.180.221.118/requiressl/yes/ratebypass/yes/pfa/1/goi/133/sgoap/clen%3D2792933%3Bdur%3D172.501%3Bgir%3Dyes%3Bitag%3D140%3Blmt%3D1739113800760800/rqh/1/hls_chunk_host/rr5---sn-vgqsknzy.googlevideo.com/xpc/EgVo2aDSNQ%3D%3D/cps/248/met/1766196917,/mh/ye/mm/31,26/mn/sn-vgqsknzy,sn-aj5ua5-5c/ms/au,onr/mv/m/mvi/5/pl/24/rms/au,au/initcwndbps/1211250/bui/AYUSA3Btm7p0JZASuyna09CafjWWJHNtSZRZkUOktxNiYAPXyRgpFgC_zwKNVorCl-APL44YhywXWYyq/spc/wH4Qq53qyehFjD7tA396rwOac0N7SgHgCrrL7yW0fmJfE0PQEnlcpACn3o3AEIUf/vprv/1/playlist_type/DVR/txp/4532534/mt/1766196543/fvip/2/keepalive/yes/fexp/51552689,51565115,51565681,51580968/sparams/expire,ei,ip,id,itag,source,requiressl,ratebypass,pfa,goi,sgoap,rqh,xpc,bui,spc,vprv,playlist_type/sig/AJfQdSswRAIgdaVXPmzPfNkTyiZ8BP1GiY9w3uKMWlhl-hdtH4CH-d0CICueYL0Ko7T-b60MQsdhaW0if4u4c9TjK4JRZ2Ldedg8/lsparams/hls_chunk_host,cps,met,mh,mm,mn,ms,mv,mvi,pl,rms,initcwndbps/lsig/APaTxxMwRAIgNJa3nRp6m6D4uR9tBDBDE0VI6wsLfa1BCGCKpC5Vi5cCICCQ9Uw4vjxTR4By27Rk80L20_NVoHd4tIocoXY68XLD/playlist/index.m3u8/begin/109111/len/4056/goap/slices%3D0-722,1617036-1940235/gosq/22/file/seg.ts' for reading
[https @ 00000222505ee5c0] Opening 'https://rr5---sn-vgqsknzy.googlevideo.com/videoplayback/id/7f48348f39b49980/itag/616/source/youtube/expire/1766218517/ei/tQZGacf7MNOplu8P2o-CwAw/ip/217.180.221.118/requiressl/yes/ratebypass/yes/pfa/1/wft/1/sgovp/clen%3D59056646%3Bdur%3D172.389%3Bgir%3Dyes%3Bitag%3D356%3Blmt%3D1731552233300740/rqh/1/hls_chunk_host/rr5---sn-vgqsknzy.googlevideo.com/xpc/EgVo2aDSNQ%3D%3D/cps/248/met/1766196917,/mh/ye/mm/31,26/mn/sn-vgqsknzy,sn-aj5ua5-5c/ms/au,onr/mv/m/mvi/5/pl/24/rms/au,au/initcwndbps/1211250/bui/AYUSA3Btm7p0JZASuyna09CafjWWJHNtSZRZkUOktxNiYAPXyRgpFgC_zwKNVorCl-APL44YhywXWYyq/spc/wH4Qq53qyehFjD7tA396rwOac0N7SgHgCrrL7yW0fmJfE0PQEnlcpACn3o3AEIUf/vprv/1/playlist_type/DVR/txp/4532434/mt/1766196543/fvip/2/keepalive/yes/fexp/51552689,51565115,51565681,51580968/sparams/expire,ei,ip,id,itag,source,requiressl,ratebypass,pfa,wft,sgovp,rqh,xpc,bui,spc,vprv,playlist_type/sig/AJfQdSswRgIhAJ4mnqRZGnhs5-X8C74EDLxtGi2RjENPaHpC3rGYYKTwAiEAq72ojxBM8x5bn83e5sPXl0J8JcS325ed9rfAmwnXbzc%3D/lsparams/hls_chunk_host,cps,met,mh,mm,mn,ms,mv,mvi,pl,rms,initcwndbps/lsig/APaTxxMwRgIhAJg50DgRpZzjuliKlUhoWk6LUA4b52K96FgPTgWwwPTtAiEAr5IZ07_lw6qJggSv5lvdPTdtR6K0A3cPe6LOBdhGHgw%3D/playlist/index.m3u8/govp/slices%3D0-219,42005419-43568987/gosq/22/file/seg.ts' for reading
[https @ 000002225107e840] Opening 'https://rr5---sn-vgqsknzy.googlevideo.com/videoplayback/id/7f48348f39b49980/itag/234/source/youtube/expire/1766218517/ei/tQZGacf7MNOplu8P2o-CwAw/ip/217.180.221.118/requiressl/yes/ratebypass/yes/pfa/1/goi/133/sgoap/clen%3D2792933%3Bdur%3D172.501%3Bgir%3Dyes%3Bitag%3D140%3Blmt%3D1739113800760800/rqh/1/hls_chunk_host/rr5---sn-vgqsknzy.googlevideo.com/xpc/EgVo2aDSNQ%3D%3D/cps/248/met/1766196917,/mh/ye/mm/31,26/mn/sn-vgqsknzy,sn-aj5ua5-5c/ms/au,onr/mv/m/mvi/5/pl/24/rms/au,au/initcwndbps/1211250/bui/AYUSA3Btm7p0JZASuyna09CafjWWJHNtSZRZkUOktxNiYAPXyRgpFgC_zwKNVorCl-APL44YhywXWYyq/spc/wH4Qq53qyehFjD7tA396rwOac0N7SgHgCrrL7yW0fmJfE0PQEnlcpACn3o3AEIUf/vprv/1/playlist_type/DVR/txp/4532534/mt/1766196543/fvip/2/keepalive/yes/fexp/51552689,51565115,51565681,51580968/sparams/expire,ei,ip,id,itag,source,requiressl,ratebypass,pfa,goi,sgoap,rqh,xpc,bui,spc,vprv,playlist_type/sig/AJfQdSswRAIgdaVXPmzPfNkTyiZ8BP1GiY9w3uKMWlhl-hdtH4CH-d0CICueYL0Ko7T-b60MQsdhaW0if4u4c9TjK4JRZ2Ldedg8/lsparams/hls_chunk_host,cps,met,mh,mm,mn,ms,mv,mvi,pl,rms,initcwndbps/lsig/APaTxxMwRAIgNJa3nRp6m6D4uR9tBDBDE0VI6wsLfa1BCGCKpC5Vi5cCICCQ9Uw4vjxTR4By27Rk80L20_NVoHd4tIocoXY68XLD/playlist/index.m3u8/begin/113167/len/6777/goap/slices%3D0-722,1778622-2101847/gosq/23/file/seg.ts' for reading
[https @ 00000222505cc600] Opening 'https://rr5---sn-vgqsknzy.googlevideo.com/videoplayback/id/7f48348f39b49980/itag/616/source/youtube/expire/1766218517/ei/tQZGacf7MNOplu8P2o-CwAw/ip/217.180.221.118/requiressl/yes/ratebypass/yes/pfa/1/wft/1/sgovp/clen%3D59056646%3Bdur%3D172.389%3Bgir%3Dyes%3Bitag%3D356%3Blmt%3D1731552233300740/rqh/1/hls_chunk_host/rr5---sn-vgqsknzy.googlevideo.com/xpc/EgVo2aDSNQ%3D%3D/cps/248/met/1766196917,/mh/ye/mm/31,26/mn/sn-vgqsknzy,sn-aj5ua5-5c/ms/au,onr/mv/m/mvi/5/pl/24/rms/au,au/initcwndbps/1211250/bui/AYUSA3Btm7p0JZASuyna09CafjWWJHNtSZRZkUOktxNiYAPXyRgpFgC_zwKNVorCl-APL44YhywXWYyq/spc/wH4Qq53qyehFjD7tA396rwOac0N7SgHgCrrL7yW0fmJfE0PQEnlcpACn3o3AEIUf/vprv/1/playlist_type/DVR/txp/4532434/mt/1766196543/fvip/2/keepalive/yes/fexp/51552689,51565115,51565681,51580968/sparams/expire,ei,ip,id,itag,source,requiressl,ratebypass,pfa,wft,sgovp,rqh,xpc,bui,spc,vprv,playlist_type/sig/AJfQdSswRgIhAJ4mnqRZGnhs5-X8C74EDLxtGi2RjENPaHpC3rGYYKTwAiEAq72ojxBM8x5bn83e5sPXl0J8JcS325ed9rfAmwnXbzc%3D/lsparams/hls_chunk_host,cps,met,mh,mm,mn,ms,mv,mvi,pl,rms,initcwndbps/lsig/APaTxxMwRgIhAJg50DgRpZzjuliKlUhoWk6LUA4b52K96FgPTgWwwPTtAiEAr5IZ07_lw6qJggSv5lvdPTdtR6K0A3cPe6LOBdhGHgw%3D/playlist/index.m3u8/govp/slices%3D0-219,43568988-46641161/gosq/23/file/seg.ts' for reading
[https @ 00000222505ee5c0] Opening 'https://rr5---sn-vgqsknzy.googlevideo.com/videoplayback/id/7f48348f39b49980/itag/616/source/youtube/expire/1766218517/ei/tQZGacf7MNOplu8P2o-CwAw/ip/217.180.221.118/requiressl/yes/ratebypass/yes/pfa/1/wft/1/sgovp/clen%3D59056646%3Bdur%3D172.389%3Bgir%3Dyes%3Bitag%3D356%3Blmt%3D1731552233300740/rqh/1/hls_chunk_host/rr5---sn-vgqsknzy.googlevideo.com/xpc/EgVo2aDSNQ%3D%3D/cps/248/met/1766196917,/mh/ye/mm/31,26/mn/sn-vgqsknzy,sn-aj5ua5-5c/ms/au,onr/mv/m/mvi/5/pl/24/rms/au,au/initcwndbps/1211250/bui/AYUSA3Btm7p0JZASuyna09CafjWWJHNtSZRZkUOktxNiYAPXyRgpFgC_zwKNVorCl-APL44YhywXWYyq/spc/wH4Qq53qyehFjD7tA396rwOac0N7SgHgCrrL7yW0fmJfE0PQEnlcpACn3o3AEIUf/vprv/1/playlist_type/DVR/txp/4532434/mt/1766196543/fvip/2/keepalive/yes/fexp/51552689,51565115,51565681,51580968/sparams/expire,ei,ip,id,itag,source,requiressl,ratebypass,pfa,wft,sgovp,rqh,xpc,bui,spc,vprv,playlist_type/sig/AJfQdSswRgIhAJ4mnqRZGnhs5-X8C74EDLxtGi2RjENPaHpC3rGYYKTwAiEAq72ojxBM8x5bn83e5sPXl0J8JcS325ed9rfAmwnXbzc%3D/lsparams/hls_chunk_host,cps,met,mh,mm,mn,ms,mv,mvi,pl,rms,initcwndbps/lsig/APaTxxMwRgIhAJg50DgRpZzjuliKlUhoWk6LUA4b52K96FgPTgWwwPTtAiEAr5IZ07_lw6qJggSv5lvdPTdtR6K0A3cPe6LOBdhGHgw%3D/playlist/index.m3u8/govp/slices%3D0-219,46641162-48158292/gosq/24/file/seg.ts' for reading
[https @ 0000022250e2b6c0] Opening 'https://rr5---sn-vgqsknzy.googlevideo.com/videoplayback/id/7f48348f39b49980/itag/234/source/youtube/expire/1766218517/ei/tQZGacf7MNOplu8P2o-CwAw/ip/217.180.221.118/requiressl/yes/ratebypass/yes/pfa/1/goi/133/sgoap/clen%3D2792933%3Bdur%3D172.501%3Bgir%3Dyes%3Bitag%3D140%3Blmt%3D1739113800760800/rqh/1/hls_chunk_host/rr5---sn-vgqsknzy.googlevideo.com/xpc/EgVo2aDSNQ%3D%3D/cps/248/met/1766196917,/mh/ye/mm/31,26/mn/sn-vgqsknzy,sn-aj5ua5-5c/ms/au,onr/mv/m/mvi/5/pl/24/rms/au,au/initcwndbps/1211250/bui/AYUSA3Btm7p0JZASuyna09CafjWWJHNtSZRZkUOktxNiYAPXyRgpFgC_zwKNVorCl-APL44YhywXWYyq/spc/wH4Qq53qyehFjD7tA396rwOac0N7SgHgCrrL7yW0fmJfE0PQEnlcpACn3o3AEIUf/vprv/1/playlist_type/DVR/txp/4532534/mt/1766196543/fvip/2/keepalive/yes/fexp/51552689,51565115,51565681,51580968/sparams/expire,ei,ip,id,itag,source,requiressl,ratebypass,pfa,goi,sgoap,rqh,xpc,bui,spc,vprv,playlist_type/sig/AJfQdSswRAIgdaVXPmzPfNkTyiZ8BP1GiY9w3uKMWlhl-hdtH4CH-d0CICueYL0Ko7T-b60MQsdhaW0if4u4c9TjK4JRZ2Ldedg8/lsparams/hls_chunk_host,cps,met,mh,mm,mn,ms,mv,mvi,pl,rms,initcwndbps/lsig/APaTxxMwRAIgNJa3nRp6m6D4uR9tBDBDE0VI6wsLfa1BCGCKpC5Vi5cCICCQ9Uw4vjxTR4By27Rk80L20_NVoHd4tIocoXY68XLD/playlist/index.m3u8/begin/119944/len/4167/goap/slices%3D0-722,1940236-2101847/gosq/24/file/seg.ts' for reading
[https @ 000002225107e840] Opening 'https://rr5---sn-vgqsknzy.googlevideo.com/videoplayback/id/7f48348f39b49980/itag/234/source/youtube/expire/1766218517/ei/tQZGacf7MNOplu8P2o-CwAw/ip/217.180.221.118/requiressl/yes/ratebypass/yes/pfa/1/goi/133/sgoap/clen%3D2792933%3Bdur%3D172.501%3Bgir%3Dyes%3Bitag%3D140%3Blmt%3D1739113800760800/rqh/1/hls_chunk_host/rr5---sn-vgqsknzy.googlevideo.com/xpc/EgVo2aDSNQ%3D%3D/cps/248/met/1766196917,/mh/ye/mm/31,26/mn/sn-vgqsknzy,sn-aj5ua5-5c/ms/au,onr/mv/m/mvi/5/pl/24/rms/au,au/initcwndbps/1211250/bui/AYUSA3Btm7p0JZASuyna09CafjWWJHNtSZRZkUOktxNiYAPXyRgpFgC_zwKNVorCl-APL44YhywXWYyq/spc/wH4Qq53qyehFjD7tA396rwOac0N7SgHgCrrL7yW0fmJfE0PQEnlcpACn3o3AEIUf/vprv/1/playlist_type/DVR/txp/4532534/mt/1766196543/fvip/2/keepalive/yes/fexp/51552689,51565115,51565681,51580968/sparams/expire,ei,ip,id,itag,source,requiressl,ratebypass,pfa,goi,sgoap,rqh,xpc,bui,spc,vprv,playlist_type/sig/AJfQdSswRAIgdaVXPmzPfNkTyiZ8BP1GiY9w3uKMWlhl-hdtH4CH-d0CICueYL0Ko7T-b60MQsdhaW0if4u4c9TjK4JRZ2Ldedg8/lsparams/hls_chunk_host,cps,met,mh,mm,mn,ms,mv,mvi,pl,rms,initcwndbps/lsig/APaTxxMwRAIgNJa3nRp6m6D4uR9tBDBDE0VI6wsLfa1BCGCKpC5Vi5cCICCQ9Uw4vjxTR4By27Rk80L20_NVoHd4tIocoXY68XLD/playlist/index.m3u8/begin/124111/len/6333/goap/slices%3D0-722,1940236-2263360/gosq/25/file/seg.ts' for reading
[https @ 00000222505cc600] Opening 'https://rr5---sn-vgqsknzy.googlevideo.com/videoplayback/id/7f48348f39b49980/itag/616/source/youtube/expire/1766218517/ei/tQZGacf7MNOplu8P2o-CwAw/ip/217.180.221.118/requiressl/yes/ratebypass/yes/pfa/1/wft/1/sgovp/clen%3D59056646%3Bdur%3D172.389%3Bgir%3Dyes%3Bitag%3D356%3Blmt%3D1731552233300740/rqh/1/hls_chunk_host/rr5---sn-vgqsknzy.googlevideo.com/xpc/EgVo2aDSNQ%3D%3D/cps/248/met/1766196917,/mh/ye/mm/31,26/mn/sn-vgqsknzy,sn-aj5ua5-5c/ms/au,onr/mv/m/mvi/5/pl/24/rms/au,au/initcwndbps/1211250/bui/AYUSA3Btm7p0JZASuyna09CafjWWJHNtSZRZkUOktxNiYAPXyRgpFgC_zwKNVorCl-APL44YhywXWYyq/spc/wH4Qq53qyehFjD7tA396rwOac0N7SgHgCrrL7yW0fmJfE0PQEnlcpACn3o3AEIUf/vprv/1/playlist_type/DVR/txp/4532434/mt/1766196543/fvip/2/keepalive/yes/fexp/51552689,51565115,51565681,51580968/sparams/expire,ei,ip,id,itag,source,requiressl,ratebypass,pfa,wft,sgovp,rqh,xpc,bui,spc,vprv,playlist_type/sig/AJfQdSswRgIhAJ4mnqRZGnhs5-X8C74EDLxtGi2RjENPaHpC3rGYYKTwAiEAq72ojxBM8x5bn83e5sPXl0J8JcS325ed9rfAmwnXbzc%3D/lsparams/hls_chunk_host,cps,met,mh,mm,mn,ms,mv,mvi,pl,rms,initcwndbps/lsig/APaTxxMwRgIhAJg50DgRpZzjuliKlUhoWk6LUA4b52K96FgPTgWwwPTtAiEAr5IZ07_lw6qJggSv5lvdPTdtR6K0A3cPe6LOBdhGHgw%3D/playlist/index.m3u8/govp/slices%3D0-219,48158293-50872989/gosq/25/file/seg.ts' for reading
frame= 2159 fps=841 q=-1.0 size=   47360KiB time=00:01:59.94 bitrate=3234.6kbits/s speed=46.7x
[https @ 0000022250e2b6c0] Opening 'https://rr5---sn-vgqsknzy.googlevideo.com/videoplayback/id/7f48348f39b49980/itag/234/source/youtube/expire/1766218517/ei/tQZGacf7MNOplu8P2o-CwAw/ip/217.180.221.118/requiressl/yes/ratebypass/yes/pfa/1/goi/133/sgoap/clen%3D2792933%3Bdur%3D172.501%3Bgir%3Dyes%3Bitag%3D140%3Blmt%3D1739113800760800/rqh/1/hls_chunk_host/rr5---sn-vgqsknzy.googlevideo.com/xpc/EgVo2aDSNQ%3D%3D/cps/248/met/1766196917,/mh/ye/mm/31,26/mn/sn-vgqsknzy,sn-aj5ua5-5c/ms/au,onr/mv/m/mvi/5/pl/24/rms/au,au/initcwndbps/1211250/bui/AYUSA3Btm7p0JZASuyna09CafjWWJHNtSZRZkUOktxNiYAPXyRgpFgC_zwKNVorCl-APL44YhywXWYyq/spc/wH4Qq53qyehFjD7tA396rwOac0N7SgHgCrrL7yW0fmJfE0PQEnlcpACn3o3AEIUf/vprv/1/playlist_type/DVR/txp/4532534/mt/1766196543/fvip/2/keepalive/yes/fexp/51552689,51565115,51565681,51580968/sparams/expire,ei,ip,id,itag,source,requiressl,ratebypass,pfa,goi,sgoap,rqh,xpc,bui,spc,vprv,playlist_type/sig/AJfQdSswRAIgdaVXPmzPfNkTyiZ8BP1GiY9w3uKMWlhl-hdtH4CH-d0CICueYL0Ko7T-b60MQsdhaW0if4u4c9TjK4JRZ2Ldedg8/lsparams/hls_chunk_host,cps,met,mh,mm,mn,ms,mv,mvi,pl,rms,initcwndbps/lsig/APaTxxMwRAIgNJa3nRp6m6D4uR9tBDBDE0VI6wsLfa1BCGCKpC5Vi5cCICCQ9Uw4vjxTR4By27Rk80L20_NVoHd4tIocoXY68XLD/playlist/index.m3u8/begin/130444/len/6389/goap/slices%3D0-722,2101848-2263360/gosq/26/file/seg.ts' for reading
[https @ 00000222505ee5c0] Opening 'https://rr5---sn-vgqsknzy.googlevideo.com/videoplayback/id/7f48348f39b49980/itag/616/source/youtube/expire/1766218517/ei/tQZGacf7MNOplu8P2o-CwAw/ip/217.180.221.118/requiressl/yes/ratebypass/yes/pfa/1/wft/1/sgovp/clen%3D59056646%3Bdur%3D172.389%3Bgir%3Dyes%3Bitag%3D356%3Blmt%3D1731552233300740/rqh/1/hls_chunk_host/rr5---sn-vgqsknzy.googlevideo.com/xpc/EgVo2aDSNQ%3D%3D/cps/248/met/1766196917,/mh/ye/mm/31,26/mn/sn-vgqsknzy,sn-aj5ua5-5c/ms/au,onr/mv/m/mvi/5/pl/24/rms/au,au/initcwndbps/1211250/bui/AYUSA3Btm7p0JZASuyna09CafjWWJHNtSZRZkUOktxNiYAPXyRgpFgC_zwKNVorCl-APL44YhywXWYyq/spc/wH4Qq53qyehFjD7tA396rwOac0N7SgHgCrrL7yW0fmJfE0PQEnlcpACn3o3AEIUf/vprv/1/playlist_type/DVR/txp/4532434/mt/1766196543/fvip/2/keepalive/yes/fexp/51552689,51565115,51565681,51580968/sparams/expire,ei,ip,id,itag,source,requiressl,ratebypass,pfa,wft,sgovp,rqh,xpc,bui,spc,vprv,playlist_type/sig/AJfQdSswRgIhAJ4mnqRZGnhs5-X8C74EDLxtGi2RjENPaHpC3rGYYKTwAiEAq72ojxBM8x5bn83e5sPXl0J8JcS325ed9rfAmwnXbzc%3D/lsparams/hls_chunk_host,cps,met,mh,mm,mn,ms,mv,mvi,pl,rms,initcwndbps/lsig/APaTxxMwRgIhAJg50DgRpZzjuliKlUhoWk6LUA4b52K96FgPTgWwwPTtAiEAr5IZ07_lw6qJggSv5lvdPTdtR6K0A3cPe6LOBdhGHgw%3D/playlist/index.m3u8/govp/slices%3D0-219,50872990-53615817/gosq/26/file/seg.ts' for reading
[https @ 000002225107e840] Opening 'https://rr5---sn-vgqsknzy.googlevideo.com/videoplayback/id/7f48348f39b49980/itag/234/source/youtube/expire/1766218517/ei/tQZGacf7MNOplu8P2o-CwAw/ip/217.180.221.118/requiressl/yes/ratebypass/yes/pfa/1/goi/133/sgoap/clen%3D2792933%3Bdur%3D172.501%3Bgir%3Dyes%3Bitag%3D140%3Blmt%3D1739113800760800/rqh/1/hls_chunk_host/rr5---sn-vgqsknzy.googlevideo.com/xpc/EgVo2aDSNQ%3D%3D/cps/248/met/1766196917,/mh/ye/mm/31,26/mn/sn-vgqsknzy,sn-aj5ua5-5c/ms/au,onr/mv/m/mvi/5/pl/24/rms/au,au/initcwndbps/1211250/bui/AYUSA3Btm7p0JZASuyna09CafjWWJHNtSZRZkUOktxNiYAPXyRgpFgC_zwKNVorCl-APL44YhywXWYyq/spc/wH4Qq53qyehFjD7tA396rwOac0N7SgHgCrrL7yW0fmJfE0PQEnlcpACn3o3AEIUf/vprv/1/playlist_type/DVR/txp/4532534/mt/1766196543/fvip/2/keepalive/yes/fexp/51552689,51565115,51565681,51580968/sparams/expire,ei,ip,id,itag,source,requiressl,ratebypass,pfa,goi,sgoap,rqh,xpc,bui,spc,vprv,playlist_type/sig/AJfQdSswRAIgdaVXPmzPfNkTyiZ8BP1GiY9w3uKMWlhl-hdtH4CH-d0CICueYL0Ko7T-b60MQsdhaW0if4u4c9TjK4JRZ2Ldedg8/lsparams/hls_chunk_host,cps,met,mh,mm,mn,ms,mv,mvi,pl,rms,initcwndbps/lsig/APaTxxMwRAIgNJa3nRp6m6D4uR9tBDBDE0VI6wsLfa1BCGCKpC5Vi5cCICCQ9Uw4vjxTR4By27Rk80L20_NVoHd4tIocoXY68XLD/playlist/index.m3u8/begin/136833/len/3111/goap/slices%3D0-722,2101848-2424996/gosq/27/file/seg.ts' for reading
[https @ 00000222505cc600] Opening 'https://rr5---sn-vgqsknzy.googlevideo.com/videoplayback/id/7f48348f39b49980/itag/616/source/youtube/expire/1766218517/ei/tQZGacf7MNOplu8P2o-CwAw/ip/217.180.221.118/requiressl/yes/ratebypass/yes/pfa/1/wft/1/sgovp/clen%3D59056646%3Bdur%3D172.389%3Bgir%3Dyes%3Bitag%3D356%3Blmt%3D1731552233300740/rqh/1/hls_chunk_host/rr5---sn-vgqsknzy.googlevideo.com/xpc/EgVo2aDSNQ%3D%3D/cps/248/met/1766196917,/mh/ye/mm/31,26/mn/sn-vgqsknzy,sn-aj5ua5-5c/ms/au,onr/mv/m/mvi/5/pl/24/rms/au,au/initcwndbps/1211250/bui/AYUSA3Btm7p0JZASuyna09CafjWWJHNtSZRZkUOktxNiYAPXyRgpFgC_zwKNVorCl-APL44YhywXWYyq/spc/wH4Qq53qyehFjD7tA396rwOac0N7SgHgCrrL7yW0fmJfE0PQEnlcpACn3o3AEIUf/vprv/1/playlist_type/DVR/txp/4532434/mt/1766196543/fvip/2/keepalive/yes/fexp/51552689,51565115,51565681,51580968/sparams/expire,ei,ip,id,itag,source,requiressl,ratebypass,pfa,wft,sgovp,rqh,xpc,bui,spc,vprv,playlist_type/sig/AJfQdSswRgIhAJ4mnqRZGnhs5-X8C74EDLxtGi2RjENPaHpC3rGYYKTwAiEAq72ojxBM8x5bn83e5sPXl0J8JcS325ed9rfAmwnXbzc%3D/lsparams/hls_chunk_host,cps,met,mh,mm,mn,ms,mv,mvi,pl,rms,initcwndbps/lsig/APaTxxMwRgIhAJg50DgRpZzjuliKlUhoWk6LUA4b52K96FgPTgWwwPTtAiEAr5IZ07_lw6qJggSv5lvdPTdtR6K0A3cPe6LOBdhGHgw%3D/playlist/index.m3u8/govp/slices%3D0-219,53615818-54777118/gosq/27/file/seg.ts' for reading
[https @ 0000022250e2b6c0] Opening 'https://rr5---sn-vgqsknzy.googlevideo.com/videoplayback/id/7f48348f39b49980/itag/234/source/youtube/expire/1766218517/ei/tQZGacf7MNOplu8P2o-CwAw/ip/217.180.221.118/requiressl/yes/ratebypass/yes/pfa/1/goi/133/sgoap/clen%3D2792933%3Bdur%3D172.501%3Bgir%3Dyes%3Bitag%3D140%3Blmt%3D1739113800760800/rqh/1/hls_chunk_host/rr5---sn-vgqsknzy.googlevideo.com/xpc/EgVo2aDSNQ%3D%3D/cps/248/met/1766196917,/mh/ye/mm/31,26/mn/sn-vgqsknzy,sn-aj5ua5-5c/ms/au,onr/mv/m/mvi/5/pl/24/rms/au,au/initcwndbps/1211250/bui/AYUSA3Btm7p0JZASuyna09CafjWWJHNtSZRZkUOktxNiYAPXyRgpFgC_zwKNVorCl-APL44YhywXWYyq/spc/wH4Qq53qyehFjD7tA396rwOac0N7SgHgCrrL7yW0fmJfE0PQEnlcpACn3o3AEIUf/vprv/1/playlist_type/DVR/txp/4532534/mt/1766196543/fvip/2/keepalive/yes/fexp/51552689,51565115,51565681,51580968/sparams/expire,ei,ip,id,itag,source,requiressl,ratebypass,pfa,goi,sgoap,rqh,xpc,bui,spc,vprv,playlist_type/sig/AJfQdSswRAIgdaVXPmzPfNkTyiZ8BP1GiY9w3uKMWlhl-hdtH4CH-d0CICueYL0Ko7T-b60MQsdhaW0if4u4c9TjK4JRZ2Ldedg8/lsparams/hls_chunk_host,cps,met,mh,mm,mn,ms,mv,mvi,pl,rms,initcwndbps/lsig/APaTxxMwRAIgNJa3nRp6m6D4uR9tBDBDE0VI6wsLfa1BCGCKpC5Vi5cCICCQ9Uw4vjxTR4By27Rk80L20_NVoHd4tIocoXY68XLD/playlist/index.m3u8/begin/139944/len/5167/goap/slices%3D0-722,2263361-2424996/gosq/28/file/seg.ts' for reading
[https @ 00000222505ee5c0] Opening 'https://rr5---sn-vgqsknzy.googlevideo.com/videoplayback/id/7f48348f39b49980/itag/616/source/youtube/expire/1766218517/ei/tQZGacf7MNOplu8P2o-CwAw/ip/217.180.221.118/requiressl/yes/ratebypass/yes/pfa/1/wft/1/sgovp/clen%3D59056646%3Bdur%3D172.389%3Bgir%3Dyes%3Bitag%3D356%3Blmt%3D1731552233300740/rqh/1/hls_chunk_host/rr5---sn-vgqsknzy.googlevideo.com/xpc/EgVo2aDSNQ%3D%3D/cps/248/met/1766196917,/mh/ye/mm/31,26/mn/sn-vgqsknzy,sn-aj5ua5-5c/ms/au,onr/mv/m/mvi/5/pl/24/rms/au,au/initcwndbps/1211250/bui/AYUSA3Btm7p0JZASuyna09CafjWWJHNtSZRZkUOktxNiYAPXyRgpFgC_zwKNVorCl-APL44YhywXWYyq/spc/wH4Qq53qyehFjD7tA396rwOac0N7SgHgCrrL7yW0fmJfE0PQEnlcpACn3o3AEIUf/vprv/1/playlist_type/DVR/txp/4532434/mt/1766196543/fvip/2/keepalive/yes/fexp/51552689,51565115,51565681,51580968/sparams/expire,ei,ip,id,itag,source,requiressl,ratebypass,pfa,wft,sgovp,rqh,xpc,bui,spc,vprv,playlist_type/sig/AJfQdSswRgIhAJ4mnqRZGnhs5-X8C74EDLxtGi2RjENPaHpC3rGYYKTwAiEAq72ojxBM8x5bn83e5sPXl0J8JcS325ed9rfAmwnXbzc%3D/lsparams/hls_chunk_host,cps,met,mh,mm,mn,ms,mv,mvi,pl,rms,initcwndbps/lsig/APaTxxMwRgIhAJg50DgRpZzjuliKlUhoWk6LUA4b52K96FgPTgWwwPTtAiEAr5IZ07_lw6qJggSv5lvdPTdtR6K0A3cPe6LOBdhGHgw%3D/playlist/index.m3u8/govp/slices%3D0-219,54777119-55919213/gosq/28/file/seg.ts' for reading
[https @ 00000222505cc600] Opening 'https://rr5---sn-vgqsknzy.googlevideo.com/videoplayback/id/7f48348f39b49980/itag/616/source/youtube/expire/1766218517/ei/tQZGacf7MNOplu8P2o-CwAw/ip/217.180.221.118/requiressl/yes/ratebypass/yes/pfa/1/wft/1/sgovp/clen%3D59056646%3Bdur%3D172.389%3Bgir%3Dyes%3Bitag%3D356%3Blmt%3D1731552233300740/rqh/1/hls_chunk_host/rr5---sn-vgqsknzy.googlevideo.com/xpc/EgVo2aDSNQ%3D%3D/cps/248/met/1766196917,/mh/ye/mm/31,26/mn/sn-vgqsknzy,sn-aj5ua5-5c/ms/au,onr/mv/m/mvi/5/pl/24/rms/au,au/initcwndbps/1211250/bui/AYUSA3Btm7p0JZASuyna09CafjWWJHNtSZRZkUOktxNiYAPXyRgpFgC_zwKNVorCl-APL44YhywXWYyq/spc/wH4Qq53qyehFjD7tA396rwOac0N7SgHgCrrL7yW0fmJfE0PQEnlcpACn3o3AEIUf/vprv/1/playlist_type/DVR/txp/4532434/mt/1766196543/fvip/2/keepalive/yes/fexp/51552689,51565115,51565681,51580968/sparams/expire,ei,ip,id,itag,source,requiressl,ratebypass,pfa,wft,sgovp,rqh,xpc,bui,spc,vprv,playlist_type/sig/AJfQdSswRgIhAJ4mnqRZGnhs5-X8C74EDLxtGi2RjENPaHpC3rGYYKTwAiEAq72ojxBM8x5bn83e5sPXl0J8JcS325ed9rfAmwnXbzc%3D/lsparams/hls_chunk_host,cps,met,mh,mm,mn,ms,mv,mvi,pl,rms,initcwndbps/lsig/APaTxxMwRgIhAJg50DgRpZzjuliKlUhoWk6LUA4b52K96FgPTgWwwPTtAiEAr5IZ07_lw6qJggSv5lvdPTdtR6K0A3cPe6LOBdhGHgw%3D/playlist/index.m3u8/govp/slices%3D0-219,55919214-57061677/gosq/29/file/seg.ts' for reading
[https @ 000002225107e840] Opening 'https://rr5---sn-vgqsknzy.googlevideo.com/videoplayback/id/7f48348f39b49980/itag/234/source/youtube/expire/1766218517/ei/tQZGacf7MNOplu8P2o-CwAw/ip/217.180.221.118/requiressl/yes/ratebypass/yes/pfa/1/goi/133/sgoap/clen%3D2792933%3Bdur%3D172.501%3Bgir%3Dyes%3Bitag%3D140%3Blmt%3D1739113800760800/rqh/1/hls_chunk_host/rr5---sn-vgqsknzy.googlevideo.com/xpc/EgVo2aDSNQ%3D%3D/cps/248/met/1766196917,/mh/ye/mm/31,26/mn/sn-vgqsknzy,sn-aj5ua5-5c/ms/au,onr/mv/m/mvi/5/pl/24/rms/au,au/initcwndbps/1211250/bui/AYUSA3Btm7p0JZASuyna09CafjWWJHNtSZRZkUOktxNiYAPXyRgpFgC_zwKNVorCl-APL44YhywXWYyq/spc/wH4Qq53qyehFjD7tA396rwOac0N7SgHgCrrL7yW0fmJfE0PQEnlcpACn3o3AEIUf/vprv/1/playlist_type/DVR/txp/4532534/mt/1766196543/fvip/2/keepalive/yes/fexp/51552689,51565115,51565681,51580968/sparams/expire,ei,ip,id,itag,source,requiressl,ratebypass,pfa,goi,sgoap,rqh,xpc,bui,spc,vprv,playlist_type/sig/AJfQdSswRAIgdaVXPmzPfNkTyiZ8BP1GiY9w3uKMWlhl-hdtH4CH-d0CICueYL0Ko7T-b60MQsdhaW0if4u4c9TjK4JRZ2Ldedg8/lsparams/hls_chunk_host,cps,met,mh,mm,mn,ms,mv,mvi,pl,rms,initcwndbps/lsig/APaTxxMwRAIgNJa3nRp6m6D4uR9tBDBDE0VI6wsLfa1BCGCKpC5Vi5cCICCQ9Uw4vjxTR4By27Rk80L20_NVoHd4tIocoXY68XLD/playlist/index.m3u8/begin/145111/len/4667/goap/slices%3D0-722,2263361-2586641/gosq/29/file/seg.ts' for reading
[https @ 0000022250e2b6c0] Opening 'https://rr5---sn-vgqsknzy.googlevideo.com/videoplayback/id/7f48348f39b49980/itag/234/source/youtube/expire/1766218517/ei/tQZGacf7MNOplu8P2o-CwAw/ip/217.180.221.118/requiressl/yes/ratebypass/yes/pfa/1/goi/133/sgoap/clen%3D2792933%3Bdur%3D172.501%3Bgir%3Dyes%3Bitag%3D140%3Blmt%3D1739113800760800/rqh/1/hls_chunk_host/rr5---sn-vgqsknzy.googlevideo.com/xpc/EgVo2aDSNQ%3D%3D/cps/248/met/1766196917,/mh/ye/mm/31,26/mn/sn-vgqsknzy,sn-aj5ua5-5c/ms/au,onr/mv/m/mvi/5/pl/24/rms/au,au/initcwndbps/1211250/bui/AYUSA3Btm7p0JZASuyna09CafjWWJHNtSZRZkUOktxNiYAPXyRgpFgC_zwKNVorCl-APL44YhywXWYyq/spc/wH4Qq53qyehFjD7tA396rwOac0N7SgHgCrrL7yW0fmJfE0PQEnlcpACn3o3AEIUf/vprv/1/playlist_type/DVR/txp/4532534/mt/1766196543/fvip/2/keepalive/yes/fexp/51552689,51565115,51565681,51580968/sparams/expire,ei,ip,id,itag,source,requiressl,ratebypass,pfa,goi,sgoap,rqh,xpc,bui,spc,vprv,playlist_type/sig/AJfQdSswRAIgdaVXPmzPfNkTyiZ8BP1GiY9w3uKMWlhl-hdtH4CH-d0CICueYL0Ko7T-b60MQsdhaW0if4u4c9TjK4JRZ2Ldedg8/lsparams/hls_chunk_host,cps,met,mh,mm,mn,ms,mv,mvi,pl,rms,initcwndbps/lsig/APaTxxMwRAIgNJa3nRp6m6D4uR9tBDBDE0VI6wsLfa1BCGCKpC5Vi5cCICCQ9Uw4vjxTR4By27Rk80L20_NVoHd4tIocoXY68XLD/playlist/index.m3u8/begin/149778/len/5722/goap/slices%3D0-722,2424997-2586641/gosq/30/file/seg.ts' for reading
[https @ 00000222505ee5c0] Opening 'https://rr5---sn-vgqsknzy.googlevideo.com/videoplayback/id/7f48348f39b49980/itag/616/source/youtube/expire/1766218517/ei/tQZGacf7MNOplu8P2o-CwAw/ip/217.180.221.118/requiressl/yes/ratebypass/yes/pfa/1/wft/1/sgovp/clen%3D59056646%3Bdur%3D172.389%3Bgir%3Dyes%3Bitag%3D356%3Blmt%3D1731552233300740/rqh/1/hls_chunk_host/rr5---sn-vgqsknzy.googlevideo.com/xpc/EgVo2aDSNQ%3D%3D/cps/248/met/1766196917,/mh/ye/mm/31,26/mn/sn-vgqsknzy,sn-aj5ua5-5c/ms/au,onr/mv/m/mvi/5/pl/24/rms/au,au/initcwndbps/1211250/bui/AYUSA3Btm7p0JZASuyna09CafjWWJHNtSZRZkUOktxNiYAPXyRgpFgC_zwKNVorCl-APL44YhywXWYyq/spc/wH4Qq53qyehFjD7tA396rwOac0N7SgHgCrrL7yW0fmJfE0PQEnlcpACn3o3AEIUf/vprv/1/playlist_type/DVR/txp/4532434/mt/1766196543/fvip/2/keepalive/yes/fexp/51552689,51565115,51565681,51580968/sparams/expire,ei,ip,id,itag,source,requiressl,ratebypass,pfa,wft,sgovp,rqh,xpc,bui,spc,vprv,playlist_type/sig/AJfQdSswRgIhAJ4mnqRZGnhs5-X8C74EDLxtGi2RjENPaHpC3rGYYKTwAiEAq72ojxBM8x5bn83e5sPXl0J8JcS325ed9rfAmwnXbzc%3D/lsparams/hls_chunk_host,cps,met,mh,mm,mn,ms,mv,mvi,pl,rms,initcwndbps/lsig/APaTxxMwRgIhAJg50DgRpZzjuliKlUhoWk6LUA4b52K96FgPTgWwwPTtAiEAr5IZ07_lw6qJggSv5lvdPTdtR6K0A3cPe6LOBdhGHgw%3D/playlist/index.m3u8/govp/slices%3D0-219,57061678-58148062/gosq/30/file/seg.ts' for reading
[https @ 000002225107e840] Opening 'https://rr5---sn-vgqsknzy.googlevideo.com/videoplayback/id/7f48348f39b49980/itag/234/source/youtube/expire/1766218517/ei/tQZGacf7MNOplu8P2o-CwAw/ip/217.180.221.118/requiressl/yes/ratebypass/yes/pfa/1/goi/133/sgoap/clen%3D2792933%3Bdur%3D172.501%3Bgir%3Dyes%3Bitag%3D140%3Blmt%3D1739113800760800/rqh/1/hls_chunk_host/rr5---sn-vgqsknzy.googlevideo.com/xpc/EgVo2aDSNQ%3D%3D/cps/248/met/1766196917,/mh/ye/mm/31,26/mn/sn-vgqsknzy,sn-aj5ua5-5c/ms/au,onr/mv/m/mvi/5/pl/24/rms/au,au/initcwndbps/1211250/bui/AYUSA3Btm7p0JZASuyna09CafjWWJHNtSZRZkUOktxNiYAPXyRgpFgC_zwKNVorCl-APL44YhywXWYyq/spc/wH4Qq53qyehFjD7tA396rwOac0N7SgHgCrrL7yW0fmJfE0PQEnlcpACn3o3AEIUf/vprv/1/playlist_type/DVR/txp/4532534/mt/1766196543/fvip/2/keepalive/yes/fexp/51552689,51565115,51565681,51580968/sparams/expire,ei,ip,id,itag,source,requiressl,ratebypass,pfa,goi,sgoap,rqh,xpc,bui,spc,vprv,playlist_type/sig/AJfQdSswRAIgdaVXPmzPfNkTyiZ8BP1GiY9w3uKMWlhl-hdtH4CH-d0CICueYL0Ko7T-b60MQsdhaW0if4u4c9TjK4JRZ2Ldedg8/lsparams/hls_chunk_host,cps,met,mh,mm,mn,ms,mv,mvi,pl,rms,initcwndbps/lsig/APaTxxMwRAIgNJa3nRp6m6D4uR9tBDBDE0VI6wsLfa1BCGCKpC5Vi5cCICCQ9Uw4vjxTR4By27Rk80L20_NVoHd4tIocoXY68XLD/playlist/index.m3u8/begin/155500/len/6944/goap/slices%3D0-722,2424997-2748124/gosq/31/file/seg.ts' for reading
[https @ 00000222505cc600] Opening 'https://rr5---sn-vgqsknzy.googlevideo.com/videoplayback/id/7f48348f39b49980/itag/616/source/youtube/expire/1766218517/ei/tQZGacf7MNOplu8P2o-CwAw/ip/217.180.221.118/requiressl/yes/ratebypass/yes/pfa/1/wft/1/sgovp/clen%3D59056646%3Bdur%3D172.389%3Bgir%3Dyes%3Bitag%3D356%3Blmt%3D1731552233300740/rqh/1/hls_chunk_host/rr5---sn-vgqsknzy.googlevideo.com/xpc/EgVo2aDSNQ%3D%3D/cps/248/met/1766196917,/mh/ye/mm/31,26/mn/sn-vgqsknzy,sn-aj5ua5-5c/ms/au,onr/mv/m/mvi/5/pl/24/rms/au,au/initcwndbps/1211250/bui/AYUSA3Btm7p0JZASuyna09CafjWWJHNtSZRZkUOktxNiYAPXyRgpFgC_zwKNVorCl-APL44YhywXWYyq/spc/wH4Qq53qyehFjD7tA396rwOac0N7SgHgCrrL7yW0fmJfE0PQEnlcpACn3o3AEIUf/vprv/1/playlist_type/DVR/txp/4532434/mt/1766196543/fvip/2/keepalive/yes/fexp/51552689,51565115,51565681,51580968/sparams/expire,ei,ip,id,itag,source,requiressl,ratebypass,pfa,wft,sgovp,rqh,xpc,bui,spc,vprv,playlist_type/sig/AJfQdSswRgIhAJ4mnqRZGnhs5-X8C74EDLxtGi2RjENPaHpC3rGYYKTwAiEAq72ojxBM8x5bn83e5sPXl0J8JcS325ed9rfAmwnXbzc%3D/lsparams/hls_chunk_host,cps,met,mh,mm,mn,ms,mv,mvi,pl,rms,initcwndbps/lsig/APaTxxMwRgIhAJg50DgRpZzjuliKlUhoWk6LUA4b52K96FgPTgWwwPTtAiEAr5IZ07_lw6qJggSv5lvdPTdtR6K0A3cPe6LOBdhGHgw%3D/playlist/index.m3u8/govp/slices%3D0-219,58148063-58596816/gosq/31/file/seg.ts' for reading
[https @ 00000222505ee5c0] Opening 'https://rr5---sn-vgqsknzy.googlevideo.com/videoplayback/id/7f48348f39b49980/itag/616/source/youtube/expire/1766218517/ei/tQZGacf7MNOplu8P2o-CwAw/ip/217.180.221.118/requiressl/yes/ratebypass/yes/pfa/1/wft/1/sgovp/clen%3D59056646%3Bdur%3D172.389%3Bgir%3Dyes%3Bitag%3D356%3Blmt%3D1731552233300740/rqh/1/hls_chunk_host/rr5---sn-vgqsknzy.googlevideo.com/xpc/EgVo2aDSNQ%3D%3D/cps/248/met/1766196917,/mh/ye/mm/31,26/mn/sn-vgqsknzy,sn-aj5ua5-5c/ms/au,onr/mv/m/mvi/5/pl/24/rms/au,au/initcwndbps/1211250/bui/AYUSA3Btm7p0JZASuyna09CafjWWJHNtSZRZkUOktxNiYAPXyRgpFgC_zwKNVorCl-APL44YhywXWYyq/spc/wH4Qq53qyehFjD7tA396rwOac0N7SgHgCrrL7yW0fmJfE0PQEnlcpACn3o3AEIUf/vprv/1/playlist_type/DVR/txp/4532434/mt/1766196543/fvip/2/keepalive/yes/fexp/51552689,51565115,51565681,51580968/sparams/expire,ei,ip,id,itag,source,requiressl,ratebypass,pfa,wft,sgovp,rqh,xpc,bui,spc,vprv,playlist_type/sig/AJfQdSswRgIhAJ4mnqRZGnhs5-X8C74EDLxtGi2RjENPaHpC3rGYYKTwAiEAq72ojxBM8x5bn83e5sPXl0J8JcS325ed9rfAmwnXbzc%3D/lsparams/hls_chunk_host,cps,met,mh,mm,mn,ms,mv,mvi,pl,rms,initcwndbps/lsig/APaTxxMwRgIhAJg50DgRpZzjuliKlUhoWk6LUA4b52K96FgPTgWwwPTtAiEAr5IZ07_lw6qJggSv5lvdPTdtR6K0A3cPe6LOBdhGHgw%3D/playlist/index.m3u8/govp/slices%3D0-219,58596817-58969253/gosq/32/file/seg.ts' for reading
[https @ 0000022250e2b6c0] Opening 'https://rr5---sn-vgqsknzy.googlevideo.com/videoplayback/id/7f48348f39b49980/itag/234/source/youtube/expire/1766218517/ei/tQZGacf7MNOplu8P2o-CwAw/ip/217.180.221.118/requiressl/yes/ratebypass/yes/pfa/1/goi/133/sgoap/clen%3D2792933%3Bdur%3D172.501%3Bgir%3Dyes%3Bitag%3D140%3Blmt%3D1739113800760800/rqh/1/hls_chunk_host/rr5---sn-vgqsknzy.googlevideo.com/xpc/EgVo2aDSNQ%3D%3D/cps/248/met/1766196917,/mh/ye/mm/31,26/mn/sn-vgqsknzy,sn-aj5ua5-5c/ms/au,onr/mv/m/mvi/5/pl/24/rms/au,au/initcwndbps/1211250/bui/AYUSA3Btm7p0JZASuyna09CafjWWJHNtSZRZkUOktxNiYAPXyRgpFgC_zwKNVorCl-APL44YhywXWYyq/spc/wH4Qq53qyehFjD7tA396rwOac0N7SgHgCrrL7yW0fmJfE0PQEnlcpACn3o3AEIUf/vprv/1/playlist_type/DVR/txp/4532534/mt/1766196543/fvip/2/keepalive/yes/fexp/51552689,51565115,51565681,51580968/sparams/expire,ei,ip,id,itag,source,requiressl,ratebypass,pfa,goi,sgoap,rqh,xpc,bui,spc,vprv,playlist_type/sig/AJfQdSswRAIgdaVXPmzPfNkTyiZ8BP1GiY9w3uKMWlhl-hdtH4CH-d0CICueYL0Ko7T-b60MQsdhaW0if4u4c9TjK4JRZ2Ldedg8/lsparams/hls_chunk_host,cps,met,mh,mm,mn,ms,mv,mvi,pl,rms,initcwndbps/lsig/APaTxxMwRAIgNJa3nRp6m6D4uR9tBDBDE0VI6wsLfa1BCGCKpC5Vi5cCICCQ9Uw4vjxTR4By27Rk80L20_NVoHd4tIocoXY68XLD/playlist/index.m3u8/begin/162444/len/4612/goap/slices%3D0-722,2586642-2748124/gosq/32/file/seg.ts' for reading
[https @ 00000222505cc600] Opening 'https://rr5---sn-vgqsknzy.googlevideo.com/videoplayback/id/7f48348f39b49980/itag/616/source/youtube/expire/1766218517/ei/tQZGacf7MNOplu8P2o-CwAw/ip/217.180.221.118/requiressl/yes/ratebypass/yes/pfa/1/wft/1/sgovp/clen%3D59056646%3Bdur%3D172.389%3Bgir%3Dyes%3Bitag%3D356%3Blmt%3D1731552233300740/rqh/1/hls_chunk_host/rr5---sn-vgqsknzy.googlevideo.com/xpc/EgVo2aDSNQ%3D%3D/cps/248/met/1766196917,/mh/ye/mm/31,26/mn/sn-vgqsknzy,sn-aj5ua5-5c/ms/au,onr/mv/m/mvi/5/pl/24/rms/au,au/initcwndbps/1211250/bui/AYUSA3Btm7p0JZASuyna09CafjWWJHNtSZRZkUOktxNiYAPXyRgpFgC_zwKNVorCl-APL44YhywXWYyq/spc/wH4Qq53qyehFjD7tA396rwOac0N7SgHgCrrL7yW0fmJfE0PQEnlcpACn3o3AEIUf/vprv/1/playlist_type/DVR/txp/4532434/mt/1766196543/fvip/2/keepalive/yes/fexp/51552689,51565115,51565681,51580968/sparams/expire,ei,ip,id,itag,source,requiressl,ratebypass,pfa,wft,sgovp,rqh,xpc,bui,spc,vprv,playlist_type/sig/AJfQdSswRgIhAJ4mnqRZGnhs5-X8C74EDLxtGi2RjENPaHpC3rGYYKTwAiEAq72ojxBM8x5bn83e5sPXl0J8JcS325ed9rfAmwnXbzc%3D/lsparams/hls_chunk_host,cps,met,mh,mm,mn,ms,mv,mvi,pl,rms,initcwndbps/lsig/APaTxxMwRgIhAJg50DgRpZzjuliKlUhoWk6LUA4b52K96FgPTgWwwPTtAiEAr5IZ07_lw6qJggSv5lvdPTdtR6K0A3cPe6LOBdhGHgw%3D/playlist/index.m3u8/govp/slices%3D0-219,58969254-59056645/gosq/33/file/seg.ts' for reading
[https @ 000002225107e840] Opening 'https://rr5---sn-vgqsknzy.googlevideo.com/videoplayback/id/7f48348f39b49980/itag/234/source/youtube/expire/1766218517/ei/tQZGacf7MNOplu8P2o-CwAw/ip/217.180.221.118/requiressl/yes/ratebypass/yes/pfa/1/goi/133/sgoap/clen%3D2792933%3Bdur%3D172.501%3Bgir%3Dyes%3Bitag%3D140%3Blmt%3D1739113800760800/rqh/1/hls_chunk_host/rr5---sn-vgqsknzy.googlevideo.com/xpc/EgVo2aDSNQ%3D%3D/cps/248/met/1766196917,/mh/ye/mm/31,26/mn/sn-vgqsknzy,sn-aj5ua5-5c/ms/au,onr/mv/m/mvi/5/pl/24/rms/au,au/initcwndbps/1211250/bui/AYUSA3Btm7p0JZASuyna09CafjWWJHNtSZRZkUOktxNiYAPXyRgpFgC_zwKNVorCl-APL44YhywXWYyq/spc/wH4Qq53qyehFjD7tA396rwOac0N7SgHgCrrL7yW0fmJfE0PQEnlcpACn3o3AEIUf/vprv/1/playlist_type/DVR/txp/4532534/mt/1766196543/fvip/2/keepalive/yes/fexp/51552689,51565115,51565681,51580968/sparams/expire,ei,ip,id,itag,source,requiressl,ratebypass,pfa,goi,sgoap,rqh,xpc,bui,spc,vprv,playlist_type/sig/AJfQdSswRAIgdaVXPmzPfNkTyiZ8BP1GiY9w3uKMWlhl-hdtH4CH-d0CICueYL0Ko7T-b60MQsdhaW0if4u4c9TjK4JRZ2Ldedg8/lsparams/hls_chunk_host,cps,met,mh,mm,mn,ms,mv,mvi,pl,rms,initcwndbps/lsig/APaTxxMwRAIgNJa3nRp6m6D4uR9tBDBDE0VI6wsLfa1BCGCKpC5Vi5cCICCQ9Uw4vjxTR4By27Rk80L20_NVoHd4tIocoXY68XLD/playlist/index.m3u8/begin/167056/len/5333/goap/slices%3D0-722,2586642-2792932/gosq/33/file/seg.ts' for reading
[out#0/mp4 @ 00000222510a23c0] video:57648KiB audio:2745KiB subtitle:0KiB other streams:0KiB global headers:0KiB muxing overhead: 0.120604%
frame= 3103 fps=1094 q=-1.0 Lsize=   60466KiB time=00:02:52.38 bitrate=2873.4kbits/s speed=60.8x

[download] 100% of   59.05MiB in 00:00:03 at 17.19MiB/s
